<svg xmlns="http://www.w3.org/2000/svg" xmlns:xlink="http://www.w3.org/1999/xlink" xmlns:inkscape="http://www.inkscape.org/namespaces/inkscape" version="1.1" width="736.07998" height="144.95999" viewBox="0 0 736.07998 144.95999" preserveAspectRatio="none">
<defs>
<clipPath id="clip_0">
<path transform="matrix(.24,0,0,.24,0,0)" d="M0 0H3066.0157V605H0Z" clip-rule="evenodd"/>
</clipPath>
<clipPath id="clip_1">
<path transform="matrix(.24,0,0,.24,0,0)" d="M3.125 0H3062.5V605H3.125Z" clip-rule="evenodd"/>
</clipPath>
</defs>
<g clip-path="url(#clip_0)">
<path transform="matrix(.75,0,0,.75,0,0)" d="M0 0H981V194H0Z" fill="#ffffff"/>
</g>
<g clip-path="url(#clip_1)">
<path transform="matrix(.71716436,0,0,.71716436,-55.140604,-651.90237)" d="M570 910H1070C1070.9826 910.00009 1071.9628 910.0482 1072.9406 910.14456 1073.9182 910.24087 1074.8889 910.3848 1075.8526 910.5764 1076.8163 910.7681 1077.7683 911.0066 1078.7084 911.29177 1079.6487 911.57699 1080.5726 911.90756 1081.4804 912.2835 1082.3882 912.65957 1083.2753 913.0791 1084.1417 913.5423 1085.0083 914.0055 1085.85 914.50997 1086.667 915.0558 1087.484 915.6017 1088.2722 916.1863 1089.0317 916.8096 1089.7913 917.4329 1090.5184 918.092 1091.2131 918.78677 1091.908 919.4815 1092.567 920.2087 1093.1904 920.96817 1093.8136 921.72769 1094.3982 922.51589 1094.9441 923.3328 1095.49 924.1498 1095.9945 924.99148 1096.4575 925.858 1096.9208 926.7245 1097.3403 927.61166 1097.7163 928.5194 1098.0923 929.4272 1098.423 930.3512 1098.7083 931.2914 1098.9934 932.2317 1099.2318 933.18368 1099.4235 934.1473 1099.6152 935.11099 1099.7593 936.0817 1099.8556 937.0595 1099.9519 938.03738 1100 939.0175 1100 940V1080C1100 1080.9826 1099.9519 1081.9627 1099.8556 1082.9404 1099.7593 1083.9182 1099.6152 1084.8889 1099.4235 1085.8526 1099.2318 1086.8163 1098.9934 1087.7682 1098.7083 1088.7085 1098.423 1089.6487 1098.0923 1090.5726 1097.7163 1091.4804 1097.3403 1092.3882 1096.9208 1093.2753 1096.4575 1094.1419 1095.9945 1095.0083 1095.49 1095.85 1094.9441 1096.6669 1094.3982 1097.4839 1093.8136 1098.2722 1093.1904 1099.0316 1092.567 1099.7913 1091.908 1100.5184 1091.2131 1101.2131 1090.5184 1101.9078 1089.7913 1102.5669 1089.0317 1103.1902 1088.2722 1103.8136 1087.4839 1104.3981 1086.6669 1104.9439 1085.85 1105.4898 1085.0083 1105.9943 1084.1417 1106.4575 1083.2753 1106.9207 1082.3882 1107.3402 1081.4804 1107.7162 1080.5726 1108.0923 1079.6487 1108.4229 1078.7084 1108.7081 1077.7683 1108.9934 1076.8163 1109.2318 1075.8526 1109.4235 1074.8889 1109.6152 1073.9182 1109.7593 1072.9406 1109.8556 1071.9628 1109.9519 1070.9826 1110 1070 1110H570C569.01748 1110 568.0373 1109.9519 567.0595 1109.8556 566.08169 1109.7593 565.11099 1109.6152 564.1473 1109.4235 563.1836 1109.2318 562.2317 1108.9934 561.2915 1108.7081 560.35128 1108.4229 559.4272 1108.0923 558.5194 1107.7162 557.6117 1107.3402 556.72457 1106.9207 555.858 1106.4575 554.99148 1105.9944 554.1497 1105.4899 553.33279 1104.944 552.5158 1104.3982 551.7276 1103.8136 550.96817 1103.1903 550.2087 1102.5669 549.4815 1101.9078 548.78677 1101.2131 548.092 1100.5184 547.4329 1099.7914 546.80966 1099.0317 546.18637 1098.2722 545.60177 1097.4839 545.05587 1096.6669 544.51 1095.85 544.0055 1095.0083 543.54238 1094.1419 543.07919 1093.2753 542.65957 1092.3882 542.28359 1091.4804 541.9076 1090.5726 541.577 1089.6487 541.2918 1088.7085 541.0066 1087.7682 540.7681 1086.8163 540.5764 1085.8526 540.3847 1084.8889 540.2407 1083.9182 540.1445 1082.9404 540.04818 1081.9627 540 1080.9826 540 1080V940C540 939.0175 540.04818 938.03738 540.1445 937.0595 540.2407 936.0817 540.3847 935.11099 540.5764 934.1473 540.7681 933.18368 541.0066 932.2317 541.2918 931.29147 541.577 930.3512 541.9076 929.4272 542.28359 928.5194 542.65957 927.61166 543.07919 926.72457 543.54238 925.85806 544.0055 924.9915 544.51 924.1498 545.05587 923.3328 545.60177 922.51589 546.18637 921.72769 546.8096 920.96817 547.4329 920.2087 548.092 919.4815 548.78677 918.78677 549.4815 918.092 550.2087 917.4329 550.96817 916.8096 551.7276 916.1863 552.5158 915.6017 553.33279 915.0558 554.1497 914.50997 554.99148 914.00546 555.858 913.54226 556.72457 913.0791 557.6117 912.65957 558.5194 912.2835 559.4272 911.90756 560.3512 911.57699 561.29147 911.29177 562.2317 911.0066 563.1836 910.7681 564.1473 910.5764 565.11099 910.3848 566.08169 910.24087 567.0595 910.1445 568.0373 910.0482 569.01748 910.00009 570 910Z" fill="#dae8fc"/>
<path transform="matrix(.71716436,0,0,.71716436,-55.140604,-651.90237)" d="M576 909.5H579V910.5H576V909.5ZM582 909.5H585V910.5H582V909.5ZM588 909.5H591V910.5H588V909.5ZM594 909.5H597V910.5H594V909.5ZM600 909.5H603V910.5H600V909.5ZM606 909.5H609V910.5H606V909.5ZM612 909.5H615V910.5H612V909.5ZM618 909.5H621V910.5H618V909.5ZM624 909.5H627V910.5H624V909.5ZM630 909.5H633V910.5H630V909.5ZM636 909.5H639V910.5H636V909.5ZM642 909.5H645V910.5H642V909.5ZM648 909.5H651V910.5H648V909.5ZM654 909.5H657V910.5H654V909.5ZM660 909.5H663V910.5H660V909.5ZM666 909.5H669V910.5H666V909.5ZM672 909.5H675V910.5H672V909.5ZM678 909.5H681V910.5H678V909.5ZM684 909.5H687V910.5H684V909.5ZM690 909.5H693V910.5H690V909.5ZM696 909.5H699V910.5H696V909.5ZM702 909.5H705V910.5H702V909.5ZM708 909.5H711V910.5H708V909.5ZM714 909.5H717V910.5H714V909.5ZM720 909.5H723V910.5H720V909.5ZM726 909.5H729V910.5H726V909.5ZM732 909.5H735V910.5H732V909.5ZM738 909.5H741V910.5H738V909.5ZM744 909.5H747V910.5H744V909.5ZM750 909.5H753V910.5H750V909.5ZM756 909.5H759V910.5H756V909.5ZM762 909.5H765V910.5H762V909.5ZM768 909.5H771V910.5H768V909.5ZM774 909.5H777V910.5H774V909.5ZM780 909.5H783V910.5H780V909.5ZM786 909.5H789V910.5H786V909.5ZM792 909.5H795V910.5H792V909.5ZM798 909.5H801V910.5H798V909.5ZM804 909.5H807V910.5H804V909.5ZM810 909.5H813V910.5H810V909.5ZM816 909.5H819V910.5H816V909.5ZM822 909.5H825V910.5H822V909.5ZM828 909.5H831V910.5H828V909.5ZM834 909.5H837V910.5H834V909.5ZM840 909.5H843V910.5H840V909.5ZM846 909.5H849V910.5H846V909.5ZM852 909.5H855V910.5H852V909.5ZM858 909.5H861V910.5H858V909.5ZM864 909.5H867V910.5H864V909.5ZM870 909.5H873V910.5H870V909.5ZM876 909.5H879V910.5H876V909.5ZM882 909.5H885V910.5H882V909.5ZM888 909.5H891V910.5H888V909.5ZM894 909.5H897V910.5H894V909.5ZM900 909.5H903V910.5H900V909.5ZM906 909.5H909V910.5H906V909.5ZM912 909.5H915V910.5H912V909.5ZM918 909.5H921V910.5H918V909.5ZM924 909.5H927V910.5H924V909.5ZM930 909.5H933V910.5H930V909.5ZM936 909.5H939V910.5H936V909.5ZM942 909.5H945V910.5H942V909.5ZM948 909.5H951V910.5H948V909.5ZM954 909.5H957V910.5H954V909.5ZM960 909.5H963V910.5H960V909.5ZM966 909.5H969V910.5H966V909.5ZM972 909.5H975V910.5H972V909.5ZM978 909.5H981V910.5H978V909.5ZM984 909.5H987V910.5H984V909.5ZM990 909.5H993V910.5H990V909.5ZM996 909.5H999V910.5H996V909.5ZM1002 909.5H1005V910.5H1002V909.5ZM1008 909.5H1011V910.5H1008V909.5ZM1014 909.5H1017V910.5H1014V909.5ZM1020 909.5H1023V910.5H1020V909.5ZM1026 909.5H1029V910.5H1026V909.5ZM1032 909.5H1035V910.5H1032V909.5ZM1038 909.5H1041V910.5H1038V909.5ZM1044 909.5H1047V910.5H1044V909.5ZM1050 909.5H1053V910.5H1050V909.5ZM1056 909.5H1059V910.5H1056V909.5ZM1062 909.5H1065V910.5H1062V909.5ZM1068 909.5H1070C1070.3303 909.5 1070.6603 909.5053 1070.9898 909.516L1070.9575 910.5155C1070.6381 910.5052 1070.319 910.5 1070 910.5H1068V909.5ZM1074.0245 909.7667C1075.0372 909.90158 1076.0403 910.0867 1077.0337 910.32217L1076.803 911.29519C1075.8418 911.0673 1074.8717 910.88827 1073.8927 910.75796L1074.0245 909.7667ZM1079.9701 911.17556C1080.9348 911.5093 1081.8803 911.89047 1082.8067 912.319L1082.3867 913.22659C1081.4906 912.812 1080.5762 912.44338 1079.6432 912.1206L1079.9701 911.17556ZM1085.5145 913.7408C1086.3948 914.26089 1087.2465 914.8235 1088.0696 915.4288L1087.477 916.23446C1086.6802 915.64846 1085.8565 915.10427 1085.006 914.60177L1085.5145 913.7408ZM1090.4381 917.3607C1091.197 918.04586 1091.9198 918.7676 1092.6067 919.5259L1091.8655 920.19717C1091.2015 919.46408 1090.5025 918.76608 1089.768 918.103L1090.4381 917.3607ZM1094.5425 921.8914C1095.149 922.7135 1095.7129 923.5641 1096.2341 924.4432L1095.374 924.9532C1094.8703 924.1034 1094.3248 923.28079 1093.7378 922.48519L1094.5425 921.8914ZM1097.6608 927.1496C1098.0907 928.0748 1098.4733 929.0195 1098.8084 929.98348L1097.8638 930.3118C1097.5397 929.3799 1097.1697 928.4663 1096.7538 927.571L1097.6608 927.1496ZM1099.6668 932.9196C1099.9037 933.9125 1100.0903 934.91476 1100.2268 935.9265L1099.2359 936.0602C1099.1039 935.0818 1098.9234 934.1123 1098.6941 933.1518L1099.6668 932.9196ZM1100.4826 938.96279C1100.4942 939.3076 1100.5 939.6534 1100.5 940V941.9523H1099.5V940C1099.5 939.66616 1099.4944 939.3316 1099.483 938.99649L1100.4826 938.96279ZM1100.5 944.9523V947.9523H1099.5V944.9523H1100.5ZM1100.5 950.9523V953.9523H1099.5V950.9523H1100.5ZM1100.5 956.9523V959.9523H1099.5V956.9523H1100.5ZM1100.5 962.9523V965.9523H1099.5V962.9523H1100.5ZM1100.5 968.9523V971.9523H1099.5V968.9523H1100.5ZM1100.5 974.9523V977.9523H1099.5V974.9523H1100.5ZM1100.5 980.9523V983.9523H1099.5V980.9523H1100.5ZM1100.5 986.9523V989.9523H1099.5V986.9523H1100.5ZM1100.5 992.9523V995.9523H1099.5V992.9523H1100.5ZM1100.5 998.9523V1001.9523H1099.5V998.9523H1100.5ZM1100.5 1004.9523V1007.9523H1099.5V1004.9523H1100.5ZM1100.5 1010.9523V1013.9523H1099.5V1010.9523H1100.5ZM1100.5 1016.9523V1019.9523H1099.5V1016.9523H1100.5ZM1100.5 1022.9523V1025.9523H1099.5V1022.9523H1100.5ZM1100.5 1028.9523V1031.9523H1099.5V1028.9523H1100.5ZM1100.5 1034.9523V1037.9523H1099.5V1034.9523H1100.5ZM1100.5 1040.9523V1043.9523H1099.5V1040.9523H1100.5ZM1100.5 1046.9523V1049.9523H1099.5V1046.9523H1100.5ZM1100.5 1052.9523V1055.9523H1099.5V1052.9523H1100.5ZM1100.5 1058.9523V1061.9523H1099.5V1058.9523H1100.5ZM1100.5 1064.9523V1067.9523H1099.5V1064.9523H1100.5ZM1100.5 1070.9523V1073.9523H1099.5V1070.9523H1100.5ZM1100.5 1076.9523V1079.9523H1099.5V1076.9523H1100.5ZM1100.3566 1082.9552C1100.2567 1083.9807 1100.1052 1084.9987 1099.9022 1086.0089L1098.9218 1085.8119C1099.1182 1084.8347 1099.2647 1083.8501 1099.3612 1082.8583L1100.3566 1082.9552ZM1099.1586 1088.9459C1098.8572 1089.9285 1098.507 1090.8932 1098.108 1091.84L1097.1864 1091.4518C1097.5723 1090.5358 1097.911 1089.6028 1098.2025 1088.6527L1099.1586 1088.9459ZM1096.7892 1094.5806C1096.2991 1095.4808 1095.7648 1096.3547 1095.186 1097.202L1094.3604 1096.6381C1094.9196 1095.8193 1095.4363 1094.9743 1095.9108 1094.1026L1096.7892 1094.5806ZM1093.342 1099.6316C1092.684 1100.4142 1091.9882 1101.1616 1091.2549 1101.8742L1090.5581 1101.1569C1091.2673 1100.4678 1091.9402 1099.7449 1092.5767 1098.988L1093.342 1099.6316ZM1088.9553 1103.8945C1088.1585 1104.5267 1087.3316 1105.1177 1086.4747 1105.6676L1085.9347 1104.826C1086.7626 1104.2947 1087.5623 1103.723 1088.3338 1103.1111L1088.9553 1103.8945ZM1083.8069 1107.1959C1082.9035 1107.6547 1081.9799 1108.0671 1081.0363 1108.4334L1080.6744 1107.501C1081.5883 1107.1464 1082.4816 1106.7474 1083.3543 1106.3043L1083.8069 1107.1959ZM1078.1069 1109.403C1077.1329 1109.6715 1076.1477 1109.8911 1075.151 1110.0619L1074.982 1109.0763C1075.9452 1108.9113 1076.8982 1108.6987 1077.8411 1108.4389L1078.1069 1109.403ZM1072.0879 1110.4285C1071.3923 1110.4762 1070.6964 1110.5001 1070 1110.5H1069.0955V1109.5H1070C1070.6744 1109.5001 1071.3475 1109.477 1072.0193 1109.4309L1072.0879 1110.4285ZM1066.0955 1110.5H1063.0955V1109.5H1066.0955V1110.5ZM1060.0955 1110.5H1057.0955V1109.5H1060.0955V1110.5ZM1054.0955 1110.5H1051.0955V1109.5H1054.0955V1110.5ZM1048.0955 1110.5H1045.0955V1109.5H1048.0955V1110.5ZM1042.0955 1110.5H1039.0955V1109.5H1042.0955V1110.5ZM1036.0955 1110.5H1033.0955V1109.5H1036.0955V1110.5ZM1030.0955 1110.5H1027.0955V1109.5H1030.0955V1110.5ZM1024.0955 1110.5H1021.09548V1109.5H1024.0955V1110.5ZM1018.09548 1110.5H1015.09548V1109.5H1018.09548V1110.5ZM1012.09548 1110.5H1009.09548V1109.5H1012.09548V1110.5ZM1006.09548 1110.5H1003.09548V1109.5H1006.09548V1110.5ZM1000.09548 1110.5H997.09548V1109.5H1000.09548V1110.5ZM994.09548 1110.5H991.09548V1109.5H994.09548V1110.5ZM988.09548 1110.5H985.09548V1109.5H988.09548V1110.5ZM982.09548 1110.5H979.09548V1109.5H982.09548V1110.5ZM976.09548 1110.5H973.09548V1109.5H976.09548V1110.5ZM970.09548 1110.5H967.09548V1109.5H970.09548V1110.5ZM964.09548 1110.5H961.09548V1109.5H964.09548V1110.5ZM958.09548 1110.5H955.09548V1109.5H958.09548V1110.5ZM952.09548 1110.5H949.09548V1109.5H952.09548V1110.5ZM946.09548 1110.5H943.09548V1109.5H946.09548V1110.5ZM940.09548 1110.5H937.09548V1109.5H940.09548V1110.5ZM934.09548 1110.5H931.09548V1109.5H934.09548V1110.5ZM928.09548 1110.5H925.09548V1109.5H928.09548V1110.5ZM922.09548 1110.5H919.09548V1109.5H922.09548V1110.5ZM916.09548 1110.5H913.09548V1109.5H916.09548V1110.5ZM910.09548 1110.5H907.09548V1109.5H910.09548V1110.5ZM904.09548 1110.5H901.09548V1109.5H904.09548V1110.5ZM898.09548 1110.5H895.09548V1109.5H898.09548V1110.5ZM892.09548 1110.5H889.09548V1109.5H892.09548V1110.5ZM886.09548 1110.5H883.09548V1109.5H886.09548V1110.5ZM880.09548 1110.5H877.09548V1109.5H880.09548V1110.5ZM874.09548 1110.5H871.09548V1109.5H874.09548V1110.5ZM868.09548 1110.5H865.09548V1109.5H868.09548V1110.5ZM862.09548 1110.5H859.09548V1109.5H862.09548V1110.5ZM856.09548 1110.5H853.09548V1109.5H856.09548V1110.5ZM850.09548 1110.5H847.09548V1109.5H850.09548V1110.5ZM844.09548 1110.5H841.09548V1109.5H844.09548V1110.5ZM838.09548 1110.5H835.09548V1109.5H838.09548V1110.5ZM832.09548 1110.5H829.09548V1109.5H832.09548V1110.5ZM826.09548 1110.5H823.09548V1109.5H826.09548V1110.5ZM820.09548 1110.5H817.09548V1109.5H820.09548V1110.5ZM814.09548 1110.5H811.09548V1109.5H814.09548V1110.5ZM808.09548 1110.5H805.09548V1109.5H808.09548V1110.5ZM802.09548 1110.5H799.09548V1109.5H802.09548V1110.5ZM796.09548 1110.5H793.09548V1109.5H796.09548V1110.5ZM790.09548 1110.5H787.09548V1109.5H790.09548V1110.5ZM784.09548 1110.5H781.09548V1109.5H784.09548V1110.5ZM778.09548 1110.5H775.09548V1109.5H778.09548V1110.5ZM772.09548 1110.5H769.09548V1109.5H772.09548V1110.5ZM766.09548 1110.5H763.09548V1109.5H766.09548V1110.5ZM760.09548 1110.5H757.09548V1109.5H760.09548V1110.5ZM754.09548 1110.5H751.09548V1109.5H754.09548V1110.5ZM748.09548 1110.5H745.09548V1109.5H748.09548V1110.5ZM742.09548 1110.5H739.09548V1109.5H742.09548V1110.5ZM736.09548 1110.5H733.09548V1109.5H736.09548V1110.5ZM730.09548 1110.5H727.09548V1109.5H730.09548V1110.5ZM724.09548 1110.5H721.09548V1109.5H724.09548V1110.5ZM718.09548 1110.5H715.09548V1109.5H718.09548V1110.5ZM712.09548 1110.5H709.09548V1109.5H712.09548V1110.5ZM706.09548 1110.5H703.09548V1109.5H706.09548V1110.5ZM700.09548 1110.5H697.09548V1109.5H700.09548V1110.5ZM694.09548 1110.5H691.09548V1109.5H694.09548V1110.5ZM688.09548 1110.5H685.09548V1109.5H688.09548V1110.5ZM682.09548 1110.5H679.09548V1109.5H682.09548V1110.5ZM676.09548 1110.5H673.09548V1109.5H676.09548V1110.5ZM670.09548 1110.5H667.09548V1109.5H670.09548V1110.5ZM664.09548 1110.5H661.09548V1109.5H664.09548V1110.5ZM658.09548 1110.5H655.09548V1109.5H658.09548V1110.5ZM652.09548 1110.5H649.09548V1109.5H652.09548V1110.5ZM646.09548 1110.5H643.09548V1109.5H646.09548V1110.5ZM640.09548 1110.5H637.09548V1109.5H640.09548V1110.5ZM634.09548 1110.5H631.09548V1109.5H634.09548V1110.5ZM628.09548 1110.5H625.09548V1109.5H628.09548V1110.5ZM622.09548 1110.5H619.09548V1109.5H622.09548V1110.5ZM616.09548 1110.5H613.09548V1109.5H616.09548V1110.5ZM610.09548 1110.5H607.09548V1109.5H610.09548V1110.5ZM604.09548 1110.5H601.09548V1109.5H604.09548V1110.5ZM598.09548 1110.5H595.09548V1109.5H598.09548V1110.5ZM592.09548 1110.5H589.09548V1109.5H592.09548V1110.5ZM586.09548 1110.5H583.09548V1109.5H586.09548V1110.5ZM580.09548 1110.5H577.09548V1109.5H580.09548V1110.5ZM574.09548 1110.5H571.09548V1109.5H574.09548V1110.5ZM568.1045 1110.441C567.0787 1110.3772 566.05917 1110.2619 565.04586 1110.095L565.2083 1109.1082C566.18917 1109.2697 567.17526 1109.3812 568.1666 1109.443L568.1045 1110.441ZM562.08029 1109.4539C561.0875 1109.1869 560.1104 1108.8705 559.14907 1108.5045L559.5049 1107.57C560.43417 1107.9237 561.37918 1108.2297 562.3399 1108.488L562.08029 1109.4539ZM556.36666 1107.2833C555.44979 1106.8252 554.558 1106.3219 553.6913 1105.7736L554.22598 1104.9286C555.0638 1105.4588 555.92636 1105.9454 556.81369 1106.3888L556.36666 1107.2833ZM551.1975 1104.0149C550.3931 1103.3851 549.62246 1102.7167 548.8855 1102.0098L549.57778 1101.2881C550.2908 1101.972 551.0362 1102.6185 551.81399 1103.2276L551.1975 1104.0149ZM546.78396 1099.7804C546.1235 1099.0054 545.5033 1098.199 544.9235 1097.3615L545.7458 1096.7924C546.3064 1097.602 546.9061 1098.3818 547.54507 1099.1317L546.78396 1099.7804ZM543.3048 1094.7517C542.8133 1093.8624 542.3674 1092.9507 541.96707 1092.0167L542.8861 1091.6227C543.2734 1092.5261 543.70468 1093.4078 544.18008 1094.2681L543.3048 1094.7517ZM540.8995 1089.1328C540.5962 1088.1665 540.3417 1087.1874 540.13589 1086.1954L541.115 1085.9923C541.31399 1086.9514 541.5602 1087.8983 541.8536 1088.8333L540.8995 1089.1328ZM539.6631 1083.1493C539.5592 1082.1492 539.50497 1081.1464 539.50039 1080.141L540.50039 1080.1364C540.5048 1081.109 540.55728 1082.0789 540.6577 1083.046L539.6631 1083.1493ZM539.5 1077.1432V1074.1432H540.5V1077.1432H539.5ZM539.5 1071.1432V1068.1432H540.5V1071.1432H539.5ZM539.5 1065.1432V1062.1432H540.5V1065.1432H539.5ZM539.5 1059.1432V1056.1432H540.5V1059.1432H539.5ZM539.5 1053.1432V1050.1432H540.5V1053.1432H539.5ZM539.5 1047.1432V1044.1432H540.5V1047.1432H539.5ZM539.5 1041.1432V1038.1432H540.5V1041.1432H539.5ZM539.5 1035.1432V1032.1432H540.5V1035.1432H539.5ZM539.5 1029.1432V1026.1432H540.5V1029.1432H539.5ZM539.5 1023.1432V1020.1432H540.5V1023.1432H539.5ZM539.5 1017.1432V1014.1432H540.5V1017.1432H539.5ZM539.5 1011.1432V1008.1432H540.5V1011.1432H539.5ZM539.5 1005.1432V1002.1432H540.5V1005.1432H539.5ZM539.5 999.1432V996.1432H540.5V999.1432H539.5ZM539.5 993.1432V990.1432H540.5V993.1432H539.5ZM539.5 987.1432V984.1432H540.5V987.1432H539.5ZM539.5 981.1432V978.1432H540.5V981.1432H539.5ZM539.5 975.1432V972.1432H540.5V975.1432H539.5ZM539.5 969.1432V966.1432H540.5V969.1432H539.5ZM539.5 963.1432V960.1432H540.5V963.1432H539.5ZM539.5 957.1432V954.1432H540.5V957.1432H539.5ZM539.5 951.1432V948.1432H540.5V951.1432H539.5ZM539.5 945.1432V942.1432H540.5V945.1432H539.5ZM539.5117 939.1526C539.53988 938.13876 539.61849 937.1286 539.74758 936.1221L540.7394 936.24929C540.6146 937.2222 540.53866 938.1993 540.51138 939.1803L539.5117 939.1526ZM540.28927 933.10647C540.51968 932.11367 540.7991 931.13479 541.1276 930.16976L542.0743 930.492C541.7565 931.42538 541.4862 932.3722 541.26339 933.3325L540.28927 933.10647ZM542.2584 927.3251C542.6823 926.39718 543.1516 925.49288 543.6662 924.6123L544.5296 925.1168C544.03176 925.9687 543.5779 926.8433 543.16799 927.7406L542.2584 927.3251ZM545.3429 922.048C545.94326 921.22348 546.58328 920.4311 547.26296 919.6708L548.0084 920.3373C547.3509 921.0728 546.7318 921.8393 546.15127 922.6366L545.3429 922.048ZM549.4176 917.49197C550.1706 916.80337 550.95626 916.1541 551.7745 915.5443L552.372 916.34609C551.5806 916.93588 550.82077 917.5638 550.0924 918.22988L549.4176 917.49197ZM554.3167 913.8412C555.1929 913.3158 556.0934 912.83566 557.01828 912.40066L557.4438 913.30557C556.5497 913.726 555.6788 914.1905 554.831 914.69888L554.3167 913.8412ZM559.84359 911.2408C560.80758 910.90029 561.78616 910.6091 562.77926 910.36709L563.0159 911.3386C562.0553 911.5727 561.1088 911.8544 560.1766 912.18368L559.84359 911.2408ZM565.7796 909.79348C566.7886 909.6525 567.80197 909.5623 568.81967 909.5229L568.85836 910.52218C567.87368 910.5603 566.89358 910.6475 565.9179 910.7838L565.7796 909.79348ZM570 909.5H573V910.5H570V909.5Z"/>
<path transform="matrix(.71716436,0,0,.71716436,-55.140604,-651.90237)" d="M110 910H330C330.98255 910.00009 331.96275 910.0482 332.94056 910.14456 333.91835 910.24087 334.88905 910.3848 335.8527 910.5764 336.81636 910.7681 337.7683 911.0066 338.70857 911.29177 339.64878 911.57699 340.57276 911.90756 341.48048 912.2835 342.38825 912.65957 343.2754 913.0791 344.1419 913.5423 345.00843 914.0055 345.85017 914.50997 346.66709 915.0558 347.48408 915.6017 348.2723 916.1863 349.03184 916.8096 349.79133 917.4329 350.51847 918.092 351.2132 918.78677 351.90797 919.4815 352.567 920.2087 353.1903 920.96817 353.81364 921.72769 354.3982 922.51589 354.94407 923.3328 355.48994 924.1498 355.99446 924.99148 356.4576 925.858 356.9208 926.7245 357.3404 927.61166 357.71638 928.5194 358.0924 929.4272 358.42304 930.3512 358.70823 931.2914 358.99345 932.2317 359.23188 933.18368 359.42356 934.1473 359.61528 935.11099 359.75929 936.0817 359.85557 937.0595 359.95185 938.03738 360 939.0175 360 940V1080C360 1080.9826 359.95185 1081.9627 359.85557 1082.9404 359.75929 1083.9182 359.61528 1084.8889 359.42356 1085.8526 359.23188 1086.8163 358.99345 1087.7682 358.7082 1088.7085 358.423 1089.6487 358.0924 1090.5726 357.71638 1091.4804 357.3404 1092.3882 356.9208 1093.2753 356.45765 1094.1419 355.99449 1095.0083 355.48994 1095.85 354.94407 1096.6669 354.3982 1097.4839 353.8136 1098.2722 353.19029 1099.0316 352.567 1099.7913 351.90797 1100.5184 351.2132 1101.2131 350.51847 1101.9078 349.79133 1102.5669 349.0318 1103.1902 348.2723 1103.8136 347.48408 1104.3981 346.66709 1104.9439 345.85017 1105.4898 345.00843 1105.9943 344.14189 1106.4575 343.2754 1106.9207 342.38825 1107.3402 341.48048 1107.7162 340.57276 1108.0923 339.64878 1108.4229 338.70857 1108.7081 337.7683 1108.9934 336.81636 1109.2318 335.8527 1109.4235 334.88905 1109.6152 333.91835 1109.7593 332.94056 1109.8556 331.96275 1109.9519 330.98255 1110 330 1110H110C109.01746 1110 108.03729 1109.9519 107.05949 1109.8556 106.08168 1109.7593 105.11094 1109.6152 104.14728 1109.4235 103.18363 1109.2318 102.23169 1108.9934 101.29146 1108.7081 100.35123 1108.4229 99.42724 1108.0923 98.519489 1107.7162 97.61174 1107.3402 96.72461 1106.9207 95.858089 1106.4575 94.99157 1105.9944 94.14983 1105.4899 93.332889 1104.944 92.51594 1104.3982 91.72771 1103.8136 90.9682 1103.1903 90.20869 1102.5669 89.481548 1101.9078 88.78679 1101.2131 88.09203 1100.5184 87.433 1099.7914 86.809688 1099.0317 86.18637 1098.2722 85.601779 1097.4839 85.0559 1096.6669 84.51004 1095.85 84.00552 1095.0083 83.54235 1094.1419 83.079189 1093.2753 82.6596 1092.3882 82.2836 1091.4804 81.9076 1090.5726 81.57699 1089.6487 81.29178 1088.7085 81.00657 1087.7682 80.76812 1086.8163 80.57643 1085.8526 80.38475 1084.8889 80.24076 1083.9182 80.144458 1082.9404 80.04816 1081.9627 80.00001 1080.9826 80 1080V940C80.00001 939.0175 80.04816 938.03738 80.144458 937.0595 80.24076 936.0817 80.38475 935.11099 80.57643 934.1473 80.76812 933.18368 81.00657 932.2317 81.29178 931.29147 81.57699 930.3512 81.9076 929.4272 82.2836 928.5194 82.6596 927.61166 83.079189 926.72457 83.54235 925.85806 84.00552 924.9915 84.51004 924.1498 85.0559 923.3328 85.601779 922.51589 86.18636 921.72769 86.80968 920.96817 87.43299 920.2087 88.09203 919.4815 88.78679 918.78677 89.481548 918.092 90.20869 917.4329 90.9682 916.8096 91.72771 916.1863 92.51594 915.6017 93.332889 915.0558 94.14983 914.50997 94.99157 914.00546 95.858089 913.54226 96.72461 913.0791 97.61174 912.65957 98.519489 912.2835 99.42724 911.90756 100.35123 911.57699 101.29146 911.29177 102.23169 911.0066 103.18363 910.7681 104.14728 910.5764 105.11094 910.3848 106.08168 910.24087 107.05949 910.1445 108.03729 910.0482 109.01746 910.00009 110 910Z" fill="#dae8fc"/>
<path transform="matrix(.71716436,0,0,.71716436,-55.140604,-651.90237)" d="M116 909.5H119V910.5H116V909.5ZM122 909.5H125V910.5H122V909.5ZM128 909.5H131V910.5H128V909.5ZM134 909.5H137V910.5H134V909.5ZM140 909.5H143V910.5H140V909.5ZM146 909.5H149V910.5H146V909.5ZM152 909.5H155V910.5H152V909.5ZM158 909.5H161V910.5H158V909.5ZM164 909.5H167V910.5H164V909.5ZM170 909.5H173V910.5H170V909.5ZM176 909.5H179V910.5H176V909.5ZM182 909.5H185V910.5H182V909.5ZM188 909.5H191V910.5H188V909.5ZM194 909.5H197V910.5H194V909.5ZM200 909.5H203V910.5H200V909.5ZM206 909.5H209V910.5H206V909.5ZM212 909.5H215V910.5H212V909.5ZM218 909.5H221V910.5H218V909.5ZM224 909.5H227V910.5H224V909.5ZM230 909.5H233V910.5H230V909.5ZM236 909.5H239V910.5H236V909.5ZM242 909.5H245V910.5H242V909.5ZM248 909.5H251V910.5H248V909.5ZM254 909.5H257V910.5H254V909.5ZM260 909.5H263V910.5H260V909.5ZM266 909.5H269V910.5H266V909.5ZM272 909.5H275V910.5H272V909.5ZM278 909.5H281V910.5H278V909.5ZM284 909.5H287V910.5H284V909.5ZM290 909.5H293V910.5H290V909.5ZM296 909.5H299V910.5H296V909.5ZM302 909.5H305V910.5H302V909.5ZM308 909.5H311V910.5H308V909.5ZM314 909.5H317V910.5H314V909.5ZM320 909.5H323V910.5H320V909.5ZM326 909.5H329V910.5H326V909.5ZM331.9916 909.56509C333.01789 909.63217 334.0382 909.751 335.05259 909.92147L334.8868 910.90768C333.90586 910.7428 332.91905 910.62789 331.92637 910.563L331.9916 909.56509ZM338.01325 910.57156C339.0062 910.8419 339.983 911.16177 340.94364 911.531L340.5848 912.46438C339.6558 912.10726 338.71104 911.7979 337.75056 911.5364L338.01325 910.57156ZM343.72019 912.76028C344.63639 913.22177 345.52693 913.7281 346.3918 914.2792L345.85447 915.12258C345.01768 914.58938 344.15629 914.0996 343.2703 913.6533L343.72019 912.76028ZM348.8789 916.04519C349.68144 916.6776 350.45008 917.3485 351.18486 918.05789L350.49028 918.77737C349.77928 918.09097 349.03584 917.442 348.25996 916.83059L348.8789 916.04519ZM353.2791 920.2938C353.937 921.071 354.55445 921.879 355.13139 922.7181L354.3074 923.2847C353.74934 922.47317 353.15217 921.6915 352.51588 920.93997L353.2791 920.2938ZM356.74226 925.3337C357.23069 926.2241 357.6735 927.1367 358.07069 928.07156L357.15034 928.46267C356.7662 927.5586 356.33793 926.6759 355.86549 925.81466L356.74226 925.3337ZM359.1297 930.9606C359.42967 931.9272 359.68089 932.90628 359.8833 933.89779L358.9035 934.09786C358.7077 933.1388 358.46476 932.19186 358.17463 931.25698L359.1297 930.9606ZM360.3469 936.94778C360.44743 937.9469 360.49845 938.94869 360.49998 939.953L359.49998 939.95449C359.49848 938.9832 359.44914 938.01437 359.3519 937.04788L360.3469 936.94778ZM360.5 942.9522V945.9522H359.5V942.9522H360.5ZM360.5 948.9522V951.9522H359.5V948.9522H360.5ZM360.5 954.9522V957.9522H359.5V954.9522H360.5ZM360.5 960.9522V963.9522H359.5V960.9522H360.5ZM360.5 966.9522V969.9522H359.5V966.9522H360.5ZM360.5 972.9522V975.9522H359.5V972.9522H360.5ZM360.5 978.9522V981.9522H359.5V978.9522H360.5ZM360.5 984.9522V987.9522H359.5V984.9522H360.5ZM360.5 990.9522V993.9522H359.5V990.9522H360.5ZM360.5 996.9522V999.9522H359.5V996.9522H360.5ZM360.5 1002.9522V1005.9522H359.5V1002.9522H360.5ZM360.5 1008.9522V1011.9522H359.5V1008.9522H360.5ZM360.5 1014.9522V1017.9522H359.5V1014.9522H360.5ZM360.5 1020.9522V1023.9522H359.5V1020.9522H360.5ZM360.5 1026.9522V1029.9522H359.5V1026.9522H360.5ZM360.5 1032.9522V1035.9522H359.5V1032.9522H360.5ZM360.5 1038.9522V1041.9522H359.5V1038.9522H360.5ZM360.5 1044.9522V1047.9522H359.5V1044.9522H360.5ZM360.5 1050.9522V1053.9522H359.5V1050.9522H360.5ZM360.5 1056.9522V1059.9522H359.5V1056.9522H360.5ZM360.5 1062.9522V1065.9522H359.5V1062.9522H360.5ZM360.5 1068.9522V1071.9522H359.5V1068.9522H360.5ZM360.5 1074.9522V1077.9522H359.5V1074.9522H360.5ZM360.48545 1080.9424C360.45408 1081.9577 360.3722 1082.9688 360.23979 1083.9756L359.24833 1083.8452C359.37638 1082.8715 359.45558 1081.8934 359.48594 1080.9114L360.48545 1080.9424ZM359.68894 1086.9868C359.45524 1087.98 359.17243 1088.9589 358.8405 1089.9235L357.89497 1089.598C358.21604 1088.665 358.48957 1087.7183 358.71556 1086.7578L359.68894 1086.9868ZM357.70133 1092.7626C357.27415 1093.6897 356.80177 1094.593 356.2842 1095.4723L355.4224 1094.965C355.92329 1094.114 356.3802 1093.2404 356.79313 1092.3441L357.70133 1092.7626ZM354.59996 1098.0303C353.9969 1098.8532 353.3542 1099.6437 352.6719 1100.4017L351.92863 1099.7328C352.5886 1098.9995 353.21018 1098.235 353.79338 1097.4392L354.59996 1098.0303ZM350.51029 1102.574C349.75538 1103.2599 348.96778 1103.9064 348.14753 1104.5136L347.55256 1103.7098C348.3455 1103.1228 349.10728 1102.4974 349.83787 1101.8338L350.51029 1102.574ZM345.59895 1106.2092C344.72138 1106.7316 343.81983 1107.2086 342.89427 1107.6404L342.47148 1106.7341C343.36659 1106.3165 344.23863 1105.8551 345.08753 1105.3499L345.59895 1106.2092ZM340.06318 1108.7921C339.09877 1109.1292 338.12013 1109.417 337.12727 1109.6557L336.8935 1108.6832C337.85426 1108.4522 338.80088 1108.1738 339.73335 1107.848L340.06318 1108.7921ZM334.12245 1110.2201C333.11433 1110.3577 332.10188 1110.4445 331.08509 1110.4806L331.04957 1109.4813C332.03303 1109.4463 333.01228 1109.3623 333.9873 1109.2294L334.12245 1110.2201ZM328.09553 1110.5H325.09553V1109.5H328.09553V1110.5ZM322.09553 1110.5H319.09553V1109.5H322.09553V1110.5ZM316.09553 1110.5H313.09553V1109.5H316.09553V1110.5ZM310.09553 1110.5H307.09553V1109.5H310.09553V1110.5ZM304.09553 1110.5H301.09553V1109.5H304.09553V1110.5ZM298.09553 1110.5H295.09553V1109.5H298.09553V1110.5ZM292.09553 1110.5H289.09553V1109.5H292.09553V1110.5ZM286.09553 1110.5H283.09553V1109.5H286.09553V1110.5ZM280.09553 1110.5H277.09553V1109.5H280.09553V1110.5ZM274.09553 1110.5H271.09553V1109.5H274.09553V1110.5ZM268.09553 1110.5H265.09553V1109.5H268.09553V1110.5ZM262.09553 1110.5H259.09553V1109.5H262.09553V1110.5ZM256.09553 1110.5H253.09552V1109.5H256.09553V1110.5ZM250.09552 1110.5H247.09552V1109.5H250.09552V1110.5ZM244.09552 1110.5H241.09552V1109.5H244.09552V1110.5ZM238.09552 1110.5H235.09552V1109.5H238.09552V1110.5ZM232.09552 1110.5H229.09552V1109.5H232.09552V1110.5ZM226.09552 1110.5H223.09552V1109.5H226.09552V1110.5ZM220.09552 1110.5H217.09552V1109.5H220.09552V1110.5ZM214.09552 1110.5H211.09552V1109.5H214.09552V1110.5ZM208.09552 1110.5H205.09552V1109.5H208.09552V1110.5ZM202.09552 1110.5H199.09552V1109.5H202.09552V1110.5ZM196.09552 1110.5H193.09552V1109.5H196.09552V1110.5ZM190.09552 1110.5H187.09552V1109.5H190.09552V1110.5ZM184.09552 1110.5H181.09552V1109.5H184.09552V1110.5ZM178.09552 1110.5H175.09552V1109.5H178.09552V1110.5ZM172.09552 1110.5H169.09552V1109.5H172.09552V1110.5ZM166.09552 1110.5H163.09552V1109.5H166.09552V1110.5ZM160.09552 1110.5H157.09552V1109.5H160.09552V1110.5ZM154.09552 1110.5H151.09552V1109.5H154.09552V1110.5ZM148.09552 1110.5H145.09552V1109.5H148.09552V1110.5ZM142.09552 1110.5H139.09552V1109.5H142.09552V1110.5ZM136.09552 1110.5H133.09552V1109.5H136.09552V1110.5ZM130.09552 1110.5H127.09552V1109.5H130.09552V1110.5ZM124.09552 1110.5H121.09552V1109.5H124.09552V1110.5ZM118.09552 1110.5H115.09552V1109.5H118.09552V1110.5ZM112.09552 1110.5H110C109.702289 1110.5 109.404 1110.4956 109.10515 1110.4868L109.13455 1109.4873C109.42234 1109.4957 109.71082 1109.5 110 1109.5H112.09552V1110.5ZM106.07327 1110.2462C105.05938 1110.1145 104.0549 1109.9325 103.059848 1109.7L103.287387 1108.7261C104.25034 1108.951 105.2219 1109.1272 106.20206 1109.2545L106.07327 1110.2462ZM100.12319 1108.8565C99.156429 1108.5255 98.20909 1108.1472 97.2812 1107.7214L97.69828 1106.8125C98.596569 1107.2247 99.5128 1107.5907 100.44698 1107.9104L100.12319 1108.8565ZM94.56998 1106.3091C93.687938 1105.7916 92.834239 1105.2316 92.00889 1104.6287L92.59872 1103.821C93.39739 1104.4044 94.223148 1104.9462 95.07597 1105.4465L94.56998 1106.3091ZM89.63457 1102.7045C88.87319 1102.0216 88.148029 1101.3023 87.45907 1100.5464L88.19813 1099.8728C88.8645 1100.6039 89.56588 1101.2997 90.302249 1101.9601L89.63457 1102.7045ZM85.51535 1098.1865C84.90604 1097.3662 84.33957 1096.5178 83.81594 1095.6412L84.67443 1095.1283C85.18131 1095.9768 85.72921 1096.7975 86.318119 1097.5903L85.51535 1098.1865ZM82.38012 1092.9381C81.94755 1092.0147 81.56226 1091.0719 81.22427 1090.1098L82.167758 1089.7782C82.49467 1090.7088 82.86731 1091.6206 83.28568 1092.5138L82.38012 1092.9381ZM80.35572 1087.174C80.11581 1086.1826 79.9261 1085.1818 79.78661 1084.1715L80.777217 1084.0348C80.91215 1085.012 81.09563 1085.98 81.32766 1086.9389L80.35572 1087.174ZM79.52104 1081.1327C79.50701 1080.7553 79.5 1080.3777 79.5 1080V1078.1433H80.5V1080C80.5 1080.3654 80.50678 1080.7305 80.520359 1081.0956L79.52104 1081.1327ZM79.5 1075.1433V1072.1433H80.5V1075.1433H79.5ZM79.5 1069.1433V1066.1433H80.5V1069.1433H79.5ZM79.5 1063.1433V1060.1433H80.5V1063.1433H79.5ZM79.5 1057.1433V1054.1433H80.5V1057.1433H79.5ZM79.5 1051.1433V1048.1433H80.5V1051.1433H79.5ZM79.5 1045.1433V1042.1433H80.5V1045.1433H79.5ZM79.5 1039.1433V1036.1433H80.5V1039.1433H79.5ZM79.5 1033.1433V1030.1433H80.5V1033.1433H79.5ZM79.5 1027.1433V1024.1433H80.5V1027.1433H79.5ZM79.5 1021.1433V1018.1433H80.5V1021.1433H79.5ZM79.5 1015.1433V1012.1433H80.5V1015.1433H79.5ZM79.5 1009.1433V1006.1433H80.5V1009.1433H79.5ZM79.5 1003.1433V1000.1433H80.5V1003.1433H79.5ZM79.5 997.1433V994.1433H80.5V997.1433H79.5ZM79.5 991.1433V988.1433H80.5V991.1433H79.5ZM79.5 985.1433V982.1433H80.5V985.1433H79.5ZM79.5 979.1433V976.1433H80.5V979.1433H79.5ZM79.5 973.1433V970.1433H80.5V973.1433H79.5ZM79.5 967.1433V964.1433H80.5V967.1433H79.5ZM79.5 961.1433V958.1433H80.5V961.1433H79.5ZM79.5 955.1433V952.1433H80.5V955.1433H79.5ZM79.5 949.1433V946.1433H80.5V949.1433H79.5ZM79.5 943.1433V940.1433H80.5V943.1433H79.5ZM79.6342 937.14199C79.730838 936.1153 79.87916 935.09609 80.07916 934.0844L81.06018 934.2784C80.86674 935.25686 80.723278 936.2426 80.62981 937.2357L79.6342 937.14199ZM80.812908 931.14779C81.111309 930.16378 81.45859 929.1974 81.854747 928.2486L82.777538 928.63388C82.39439 929.55148 82.0585 930.48617 81.769878 931.4379L80.812908 931.14779ZM83.16429 925.5054C83.65188 924.60269 84.18358 923.72689 84.75939 922.8779L85.58697 923.43936C85.0299 924.26058 84.515628 925.10769 84.04414 925.9806L83.16429 925.5054ZM86.59533 920.4432C87.250789 919.6587 87.94402 918.909 88.67505 918.19418L89.37421 918.9091C88.66735 919.60037 87.99686 920.32546 87.362728 921.0844L86.59533 920.4432ZM90.96848 916.16629C91.76337 915.53146 92.58794 914.9379 93.44221 914.38577L93.98504 915.2256C93.15883 915.7596 92.36133 916.3336 91.59255 916.94766L90.96848 916.16629ZM96.10627 912.8484C97.00712 912.38729 97.928668 911.97219 98.87091 911.60299L99.23573 912.534C98.3245 912.89108 97.43323 913.29257 96.5619 913.7385L96.10627 912.8484ZM101.799449 910.6231C102.77225 910.35159 103.75586 910.12899 104.75028 909.9552L104.922389 910.9403C103.960079 911.10848 103.00871 911.3237 102.06829 911.58627L101.799449 910.6231ZM107.8157 909.5783C108.542858 909.5261 109.27094 909.50009 109.99997 909.5H113V910.5H110.00003C109.29486 910.50009 108.5906 910.52529 107.887248 910.57577L107.8157 909.5783Z"/>
<text xml:space="preserve" transform="matrix(.71716436 0 0 .71716436 -55.499189 -652.2609)" font-size="15" font-family="CMUSansSerif"><tspan y="930" x="191.96875 200.08399 205.21399 212.71399 220.469 225.88399 232.54399 240.299">Frontend</tspan></text>
<path transform="matrix(.71716436,0,0,.71716436,-55.140604,-651.90237)" d="M99 980H201C201.59095 980.00009 202.17621 980.0577 202.7558 980.173 203.33539 980.2882 203.89817 980.45889 204.44412 980.685 204.99008 980.91116 205.50875 981.18838 206.00009 981.51669 206.49146 981.845 206.94608 982.218 207.36396 982.6359 207.78182 983.0538 208.15489 983.50839 208.48322 983.9997 208.81151 984.491 209.08873 985.0097 209.31488 985.55569 209.54103 986.1016 209.71176 986.6644 209.82706 987.2441 209.94235 987.8237 210 988.409 210 989V1031C210 1031.591 209.94235 1032.1762 209.82706 1032.7557 209.71176 1033.3353 209.54105 1033.8981 209.3149 1034.4441 209.08875 1034.9901 208.81153 1035.5088 208.48322 1036.0001 208.15489 1036.4915 207.78182 1036.946 207.36396 1037.3639 206.94608 1037.7817 206.49146 1038.1548 206.0001 1038.4832 205.50876 1038.8114 204.9901 1039.0886 204.44414 1039.3148 203.89817 1039.541 203.33539 1039.7117 202.7558 1039.827 202.17621 1039.9423 201.59095 1039.9999 201 1040H99C98.40905 1039.9999 97.82378 1039.9423 97.24418 1039.827 96.66458 1039.7117 96.10181 1039.541 95.55585 1039.3148 95.00988 1039.0886 94.49123 1038.8114 93.99987 1038.4832 93.508518 1038.1548 93.0539 1037.7817 92.63604 1037.3639 92.21817 1036.946 91.845088 1036.4915 91.51678 1036.0001 91.18846 1035.5088 90.911228 1034.9901 90.685077 1034.4441 90.45893 1033.8981 90.288219 1033.3353 90.172939 1032.7557 90.05765 1032.1762 90 1031.591 90 1031V989C90 988.409 90.05765 987.8237 90.172939 987.2441 90.288219 986.6645 90.45893 986.1017 90.68508 985.5557 90.911228 985.0097 91.18846 984.491 91.51678 983.9997 91.845088 983.50839 92.21817 983.0538 92.63604 982.6359 93.0539 982.218 93.508518 981.845 93.99987 981.51669 94.49123 981.18838 95.00988 980.91116 95.55585 980.685 96.10181 980.45889 96.66458 980.2882 97.24418 980.1729 97.82378 980.0577 98.40905 980.00009 99 980Z" fill="#f8cecc"/>
<path transform="matrix(.71716436,0,0,.71716436,-55.140604,-651.90237)" stroke-width="1" stroke-linecap="butt" stroke-miterlimit="4" stroke-linejoin="miter" fill="none" stroke="#000000" d="M99 980H201C201.59095 980.00009 202.17621 980.0577 202.7558 980.173 203.33539 980.2882 203.89817 980.45889 204.44412 980.685 204.99008 980.91116 205.50875 981.18838 206.00009 981.51669 206.49146 981.845 206.94608 982.218 207.36396 982.6359 207.78182 983.0538 208.15489 983.50839 208.48322 983.9997 208.81151 984.491 209.08873 985.0097 209.31488 985.55569 209.54103 986.1016 209.71176 986.6644 209.82706 987.2441 209.94235 987.8237 210 988.409 210 989V1031C210 1031.591 209.94235 1032.1762 209.82706 1032.7557 209.71176 1033.3353 209.54105 1033.8981 209.3149 1034.4441 209.08875 1034.9901 208.81153 1035.5088 208.48322 1036.0001 208.15489 1036.4915 207.78182 1036.946 207.36396 1037.3639 206.94608 1037.7817 206.49146 1038.1548 206.0001 1038.4832 205.50876 1038.8114 204.9901 1039.0886 204.44414 1039.3148 203.89817 1039.541 203.33539 1039.7117 202.7558 1039.827 202.17621 1039.9423 201.59095 1039.9999 201 1040H99C98.40905 1039.9999 97.82378 1039.9423 97.24418 1039.827 96.66458 1039.7117 96.10181 1039.541 95.55585 1039.3148 95.00988 1039.0886 94.49123 1038.8114 93.99987 1038.4832 93.508518 1038.1548 93.0539 1037.7817 92.63604 1037.3639 92.21817 1036.946 91.845088 1036.4915 91.51678 1036.0001 91.18846 1035.5088 90.911228 1034.9901 90.685077 1034.4441 90.45893 1033.8981 90.288219 1033.3353 90.172939 1032.7557 90.05765 1032.1762 90 1031.591 90 1031V989C90 988.409 90.05765 987.8237 90.172939 987.2441 90.288219 986.6645 90.45893 986.1017 90.68508 985.5557 90.911228 985.0097 91.18846 984.491 91.51678 983.9997 91.845088 983.50839 92.21817 983.0538 92.63604 982.6359 93.0539 982.218 93.508518 981.845 93.99987 981.51669 94.49123 981.18838 95.00988 980.91116 95.55585 980.685 96.10181 980.45889 96.66458 980.2882 97.24418 980.1729 97.82378 980.0577 98.40905 980.00009 99 980Z"/>
<text xml:space="preserve" transform="matrix(.71716436 0 0 .71716436 -55.499189 -652.2609)" font-size="14" font-family="CMUSansSerif"><tspan y="1006" x="102.34375 111.38775 117.60375 127.16576 131.95375 135.29975 140.35375 146.56975 151.23175 160.27576 167.51377 170.85976 177.07576 182.43776 187.09976 190.44576">Rewrite Rules in</tspan></text>
<text xml:space="preserve" transform="matrix(.71716436 0 0 .71716436 -55.499189 -652.2609)" font-size="14" font-family="CMUSansSerif"><tspan y="1023" x="114.875 123.228519 129.44452 136.68253 142.04453 148.64453 153.43253 162.47653 165.82253 172.82253 180.06053">TensorRight</tspan></text>
<path transform="matrix(.71716436,0,0,.71716436,-55.140604,-651.90237)" d="M239 980H341C341.5909 980.00009 342.17619 980.0577 342.75578 980.173 343.33537 980.2882 343.89814 980.45889 344.4441 980.685 344.99006 980.91116 345.5087 981.18838 346.00007 981.51669 346.49143 981.845 346.94606 982.218 347.36393 982.6359 347.78178 983.0538 348.15486 983.50839 348.4832 983.9997 348.8115 984.491 349.0887 985.0097 349.31489 985.55569 349.54106 986.1016 349.71177 986.6644 349.82704 987.2441 349.94233 987.8237 349.99998 988.409 350 989V1031C349.99998 1031.591 349.94233 1032.1762 349.82704 1032.7557 349.71177 1033.3353 349.54106 1033.8981 349.31489 1034.4441 349.0887 1034.9901 348.8115 1035.5088 348.48316 1036.0001 348.15486 1036.4915 347.78178 1036.946 347.36393 1037.3639 346.94606 1037.7817 346.49143 1038.1548 346.00007 1038.4832 345.5087 1038.8114 344.99006 1039.0886 344.4441 1039.3148 343.89814 1039.541 343.33537 1039.7117 342.75578 1039.827 342.17619 1039.9423 341.5909 1039.9999 341 1040H239C238.40904 1039.9999 237.82376 1039.9423 237.24416 1039.827 236.66455 1039.7117 236.10178 1039.541 235.5558 1039.3148 235.00984 1039.0886 234.49118 1038.8114 233.99983 1038.4832 233.50849 1038.1548 233.05388 1037.7817 232.63602 1037.3639 232.21814 1036.946 231.84505 1036.4915 231.51674 1036.0001 231.18843 1035.5088 230.91121 1034.9901 230.68506 1034.4441 230.45891 1033.8981 230.2882 1033.3353 230.17292 1032.7557 230.05764 1032.1762 229.99999 1031.591 230 1031V989C229.99999 988.409 230.05764 987.8237 230.17292 987.2441 230.2882 986.6645 230.45891 986.1017 230.68506 985.5557 230.91121 985.0097 231.18843 984.491 231.51674 983.9997 231.84505 983.50839 232.21814 983.0538 232.63602 982.6359 233.05388 982.218 233.50849 981.845 233.99983 981.51669 234.4912 981.18838 235.00986 980.91116 235.55582 980.685 236.10179 980.45889 236.66457 980.2882 237.24416 980.1729 237.82376 980.0577 238.40904 980.00009 239 980Z" fill="#d5e8d4"/>
<path transform="matrix(.71716436,0,0,.71716436,-55.140604,-651.90237)" stroke-width="1" stroke-linecap="butt" stroke-miterlimit="4" stroke-linejoin="miter" fill="none" stroke="#000000" d="M239 980H341C341.5909 980.00009 342.17619 980.0577 342.75578 980.173 343.33537 980.2882 343.89814 980.45889 344.4441 980.685 344.99006 980.91116 345.5087 981.18838 346.00007 981.51669 346.49143 981.845 346.94606 982.218 347.36393 982.6359 347.78178 983.0538 348.15486 983.50839 348.4832 983.9997 348.8115 984.491 349.0887 985.0097 349.31489 985.55569 349.54106 986.1016 349.71177 986.6644 349.82704 987.2441 349.94233 987.8237 349.99998 988.409 350 989V1031C349.99998 1031.591 349.94233 1032.1762 349.82704 1032.7557 349.71177 1033.3353 349.54106 1033.8981 349.31489 1034.4441 349.0887 1034.9901 348.8115 1035.5088 348.48316 1036.0001 348.15486 1036.4915 347.78178 1036.946 347.36393 1037.3639 346.94606 1037.7817 346.49143 1038.1548 346.00007 1038.4832 345.5087 1038.8114 344.99006 1039.0886 344.4441 1039.3148 343.89814 1039.541 343.33537 1039.7117 342.75578 1039.827 342.17619 1039.9423 341.5909 1039.9999 341 1040H239C238.40904 1039.9999 237.82376 1039.9423 237.24416 1039.827 236.66455 1039.7117 236.10178 1039.541 235.5558 1039.3148 235.00984 1039.0886 234.49118 1038.8114 233.99983 1038.4832 233.50849 1038.1548 233.05388 1037.7817 232.63602 1037.3639 232.21814 1036.946 231.84505 1036.4915 231.51674 1036.0001 231.18843 1035.5088 230.91121 1034.9901 230.68506 1034.4441 230.45891 1033.8981 230.2882 1033.3353 230.17292 1032.7557 230.05764 1032.1762 229.99999 1031.591 230 1031V989C229.99999 988.409 230.05764 987.8237 230.17292 987.2441 230.2882 986.6645 230.45891 986.1017 230.68506 985.5557 230.91121 985.0097 231.18843 984.491 231.51674 983.9997 231.84505 983.50839 232.21814 983.0538 232.63602 982.6359 233.05388 982.218 233.50849 981.845 233.99983 981.51669 234.4912 981.18838 235.00986 980.91116 235.55582 980.685 236.10179 980.45889 236.66457 980.2882 237.24416 980.1729 237.82376 980.0577 238.40904 980.00009 239 980Z"/>
<text xml:space="preserve" transform="matrix(.71716436 0 0 .71716436 -55.499189 -652.2609)" font-size="14" font-family="CMUSansSerif"><tspan y="1014" x="232.73438 241.08789 247.54189 255.16309 261.3791 268.3791 277.4231 286.3691 289.71513 296.43513 301.79713 307.15913 311.8211 320.76713 328.00514 334.22114 340.43714">Type/RClass Check</tspan></text>
<path transform="matrix(.71716436,0,0,.71716436,-55.140604,-651.90237)" stroke-width="1" stroke-linecap="butt" stroke-miterlimit="10" stroke-linejoin="miter" fill="none" stroke="#000000" d="M210 1010H223.63"/>
<path transform="matrix(.71716436,0,0,.71716436,-55.140604,-651.90237)" d="M228.88 1010 221.88 1013.5 223.63 1010 221.88 1006.5 228.88 1010Z"/>
<path transform="matrix(.71716436,0,0,.71716436,-55.140604,-651.90237)" stroke-width="1" stroke-linecap="butt" stroke-miterlimit="10" stroke-linejoin="miter" fill="none" stroke="#000000" d="M228.88 1010 221.88 1013.5 223.63 1010 221.88 1006.5 228.88 1010Z"/>
<path transform="matrix(.71716436,0,0,.71716436,-55.140604,-651.90237)" d="M401 910H499C500.37889 910 501.74449 910.1345 503.09687 910.4035 504.44926 910.6725 505.7624 911.0708 507.03633 911.59848 508.3102 912.1261 509.52043 912.77297 510.66694 913.539 511.81346 914.30508 512.8742 915.17568 513.84927 916.1507 514.8243 917.1257 515.69479 918.1864 516.4608 919.33297 517.22689 920.4794 517.8738 921.6896 518.4014 922.9635 518.9291 924.2374 519.3274 925.5506 519.59646 926.903 519.8654 928.25546 519.99996 929.6211 520 931V1089C519.99996 1090.3788 519.8654 1091.7444 519.59646 1093.0968 519.3274 1094.4492 518.9291 1095.7623 518.4014 1097.0363 517.8738 1098.3102 517.22689 1099.5204 516.4608 1100.6669 515.69479 1101.8135 514.8243 1102.8742 513.84927 1103.8491 512.8742 1104.8242 511.81349 1105.6947 510.66697 1106.4607 509.52046 1107.2268 508.3102 1107.8737 507.03633 1108.4013 505.7624 1108.929 504.44926 1109.3273 503.09687 1109.5964 501.74449 1109.8655 500.37889 1110 499 1110H401C399.62113 1110 398.25547 1109.8655 396.90309 1109.5964 395.5507 1109.3273 394.23756 1108.929 392.96363 1108.4013 391.68974 1107.8737 390.47953 1107.2268 389.333 1106.4607 388.1865 1105.6947 387.12574 1104.8242 386.15074 1103.8491 385.17573 1102.8742 384.30519 1101.8135 383.5391 1100.6669 382.773 1099.5204 382.12617 1098.3102 381.59849 1097.0363 381.0708 1095.7623 380.6725 1094.4492 380.40348 1093.0968 380.13447 1091.7444 379.99998 1090.3788 380 1089V931C379.99998 929.6211 380.13447 928.25546 380.40348 926.903 380.6725 925.5506 381.0708 924.2374 381.59849 922.9635 382.12617 921.6896 382.773 920.4794 383.5391 919.3329 384.30519 918.1864 385.17573 917.1257 386.15074 916.1507 387.12574 915.17568 388.1865 914.30508 389.33299 913.539 390.4795 912.77297 391.68974 912.1261 392.96363 911.59848 394.23756 911.0708 395.5507 910.6725 396.90309 910.4035 398.25547 910.1345 399.62113 910 401 910Z" fill="#dae8fc"/>
<path transform="matrix(.71716436,0,0,.71716436,-55.140604,-651.90237)" d="M407 909.5H410V910.5H407V909.5ZM413 909.5H416V910.5H413V909.5ZM419 909.5H422V910.5H419V909.5ZM425 909.5H428V910.5H425V909.5ZM431 909.5H434V910.5H431V909.5ZM437 909.5H440V910.5H437V909.5ZM443 909.5H446V910.5H443V909.5ZM449 909.5H452V910.5H449V909.5ZM455 909.5H458V910.5H455V909.5ZM461 909.5H464V910.5H461V909.5ZM467 909.5H470V910.5H467V909.5ZM473 909.5H476V910.5H473V909.5ZM479 909.5H482V910.5H479V909.5ZM485 909.5H488V910.5H485V909.5ZM491 909.5H494V910.5H491V909.5ZM497 909.5H499C499.3254 909.50009 499.65028 909.50747 499.97456 909.52218L499.9292 910.5212C499.6192 910.5071 499.30949 910.50009 499 910.5H497V909.5ZM502.97853 909.8713C504.01664 910.0668 505.03504 910.33737 506.03373 910.68307L505.70658 911.628C504.7547 911.29849 503.78367 911.0405 502.79347 910.85409L502.97853 909.8713ZM508.87593 911.90249C509.79283 912.3765 510.6711 912.914 511.51075 913.51486L510.92884 914.32809C510.1284 913.7553 509.291 913.24288 508.41664 912.7908L508.87593 911.90249ZM513.914 915.51376C514.66738 916.23928 515.3642 917.01589 516.0045 917.84347L515.2136 918.4554C514.60336 917.6665 513.93887 916.9261 513.2203 916.2341L513.914 915.51376ZM517.72067 920.42697C518.22177 921.3142 518.6576 922.23257 519.0282 923.18197L518.0967 923.5456C517.7434 922.6405 517.3278 921.7649 516.8499 920.91879L517.72067 920.42697ZM519.9651 926.234C520.19198 927.2318 520.34677 928.2406 520.4295 929.2603L519.4328 929.34127C519.3539 928.3689 519.20626 927.40707 518.99 926.4557L519.9651 926.234ZM520.5 932.2258V935.2258H519.5V932.2258H520.5ZM520.5 938.2258V941.2258H519.5V938.2258H520.5ZM520.5 944.2258V947.2258H519.5V944.2258H520.5ZM520.5 950.2258V953.2258H519.5V950.2258H520.5ZM520.5 956.2258V959.2258H519.5V956.2258H520.5ZM520.5 962.2258V965.2258H519.5V962.2258H520.5ZM520.5 968.2258V971.2258H519.5V968.2258H520.5ZM520.5 974.2258V977.2258H519.5V974.2258H520.5ZM520.5 980.2258V983.2258H519.5V980.2258H520.5ZM520.5 986.2258V989.2258H519.5V986.2258H520.5ZM520.5 992.2258V995.2258H519.5V992.2258H520.5ZM520.5 998.2258V1001.2258H519.5V998.2258H520.5ZM520.5 1004.2258V1007.2258H519.5V1004.2258H520.5ZM520.5 1010.2258V1013.2258H519.5V1010.2258H520.5ZM520.5 1016.2258V1019.2258H519.5V1016.2258H520.5ZM520.5 1022.2258V1025.2258H519.5V1022.2258H520.5ZM520.5 1028.2258V1031.2258H519.5V1028.2258H520.5ZM520.5 1034.2258V1037.2258H519.5V1034.2258H520.5ZM520.5 1040.2258V1043.2258H519.5V1040.2258H520.5ZM520.5 1046.2258V1049.2258H519.5V1046.2258H520.5ZM520.5 1052.2258V1055.2258H519.5V1052.2258H520.5ZM520.5 1058.2258V1061.2258H519.5V1058.2258H520.5ZM520.5 1064.2258V1067.2258H519.5V1064.2258H520.5ZM520.5 1070.2258V1073.2258H519.5V1070.2258H520.5ZM520.5 1076.2258V1079.2258H519.5V1076.2258H520.5ZM520.5 1082.2258V1085.2258H519.5V1082.2258H520.5ZM520.5 1088.2258V1089C520.5 1089.7317 520.4627 1090.4617 520.3882 1091.1898L519.39346 1091.088C519.4645 1090.394 519.5 1089.698 519.5 1089V1088.2258H520.5ZM519.8551 1094.2263C519.5967 1095.2577 519.2636 1096.2642 518.85598 1097.2457L517.9324 1096.8622C518.32119 1095.926 518.63876 1094.9663 518.88516 1093.9832L519.8551 1094.2263ZM517.4879 1099.9749C516.95767 1100.868 516.36587 1101.7184 515.71249 1102.5258L514.9351 1101.8966C515.5583 1101.1267 516.1226 1100.3159 516.62808 1099.4644L517.4879 1099.9749ZM513.5703 1104.81C512.80307 1105.5171 511.9885 1106.1649 511.12666 1106.7537L510.56263 1105.928C511.38407 1105.367 512.1607 1104.7492 512.8926 1104.0747L513.5703 1104.81ZM508.46479 1108.3046C507.52964 1108.7632 506.56617 1109.1516 505.5744 1109.4701L505.26869 1108.518C506.21409 1108.2144 507.13273 1107.8439 508.02455 1107.4066L508.46479 1108.3046ZM502.52064 1110.21C501.5312 1110.3742 500.53507 1110.4688 499.5323 1110.4935L499.5075 1109.4938C500.46363 1109.4701 501.41343 1109.38 502.35688 1109.2234L502.52064 1110.21ZM496.5483 1110.5H493.5483V1109.5H496.5483V1110.5ZM490.5483 1110.5H487.5483V1109.5H490.5483V1110.5ZM484.5483 1110.5H481.5483V1109.5H484.5483V1110.5ZM478.5483 1110.5H475.5483V1109.5H478.5483V1110.5ZM472.5483 1110.5H469.5483V1109.5H472.5483V1110.5ZM466.5483 1110.5H463.5483V1109.5H466.5483V1110.5ZM460.5483 1110.5H457.5483V1109.5H460.5483V1110.5ZM454.5483 1110.5H451.5483V1109.5H454.5483V1110.5ZM448.5483 1110.5H445.5483V1109.5H448.5483V1110.5ZM442.5483 1110.5H439.5483V1109.5H442.5483V1110.5ZM436.5483 1110.5H433.5483V1109.5H436.5483V1110.5ZM430.5483 1110.5H427.5483V1109.5H430.5483V1110.5ZM424.5483 1110.5H421.5483V1109.5H424.5483V1110.5ZM418.5483 1110.5H415.5483V1109.5H418.5483V1110.5ZM412.5483 1110.5H409.5483V1109.5H412.5483V1110.5ZM406.5483 1110.5H403.5483V1109.5H406.5483V1110.5ZM400.56193 1110.4955C399.5605 1110.4751 398.56559 1110.3853 397.57719 1110.2258L397.73643 1109.2385C398.6793 1109.3906 399.6279 1109.4763 400.58226 1109.4957L400.56193 1110.4955ZM394.52394 1109.5015C393.5293 1109.1873 392.5625 1108.8026 391.62358 1108.3477L392.05967 1107.4478C392.95466 1107.8815 393.8765 1108.2482 394.8252 1108.5479L394.52394 1109.5015ZM388.95619 1106.8099C388.09193 1106.2256 387.2746 1105.5817 386.50419 1104.8783L387.17845 1104.1398C387.9131 1104.8104 388.69239 1105.4243 389.51637 1105.9816L388.95619 1106.8099ZM384.35118 1102.6039C383.69374 1101.7993 383.0977 1100.9514 382.56306 1100.0602L383.4206 1099.5458C383.93025 1100.3954 384.49855 1101.2039 385.12553 1101.9711L384.35118 1102.6039ZM381.1816 1097.3355C380.77 1096.3568 380.43275 1095.3534 380.16984 1094.325L381.13865 1094.0772C381.38938 1095.0579 381.71095 1096.0148 382.10337 1096.9478L381.1816 1097.3355ZM379.62193 1091.2864C379.54066 1090.5265 379.5 1089.7643 379.5 1089V1088.3225H380.5V1089C380.5 1089.7286 380.53877 1090.4553 380.61625 1091.1799L379.62193 1091.2864ZM379.5 1085.3225V1082.3225H380.5V1085.3225H379.5ZM379.5 1079.3225V1076.3225H380.5V1079.3225H379.5ZM379.5 1073.3225V1070.3225H380.5V1073.3225H379.5ZM379.5 1067.3225V1064.3225H380.5V1067.3225H379.5ZM379.5 1061.3225V1058.3225H380.5V1061.3225H379.5ZM379.5 1055.3225V1052.3225H380.5V1055.3225H379.5ZM379.5 1049.3225V1046.3225H380.5V1049.3225H379.5ZM379.5 1043.3225V1040.3225H380.5V1043.3225H379.5ZM379.5 1037.3225V1034.3225H380.5V1037.3225H379.5ZM379.5 1031.3225V1028.3225H380.5V1031.3225H379.5ZM379.5 1025.3225V1022.3225H380.5V1025.3225H379.5ZM379.5 1019.3225V1016.3225H380.5V1019.3225H379.5ZM379.5 1013.3225V1010.3225H380.5V1013.3225H379.5ZM379.5 1007.3225V1004.3225H380.5V1007.3225H379.5ZM379.5 1001.3225V998.3225H380.5V1001.3225H379.5ZM379.5 995.3225V992.3225H380.5V995.3225H379.5ZM379.5 989.3225V986.3225H380.5V989.3225H379.5ZM379.5 983.3225V980.3225H380.5V983.3225H379.5ZM379.5 977.3225V974.3225H380.5V977.3225H379.5ZM379.5 971.3225V968.3225H380.5V971.3225H379.5ZM379.5 965.3225V962.3225H380.5V965.3225H379.5ZM379.5 959.3225V956.3225H380.5V959.3225H379.5ZM379.5 953.3225V950.3225H380.5V953.3225H379.5ZM379.5 947.3225V944.3225H380.5V947.3225H379.5ZM379.5 941.3225V938.3225H380.5V941.3225H379.5ZM379.5 935.3225V932.3225H380.5V935.3225H379.5ZM379.56294 929.3564C379.64106 928.33779 379.791 927.32986 380.01277 926.3325L380.9889 926.54959C380.77748 927.5004 380.6345 928.4615 380.56 929.4328L379.56294 929.3564ZM380.93394 923.2797C381.30049 922.32687 381.73283 921.4047 382.2309 920.5134L383.10383 921.0012C382.629 921.8509 382.21684 922.73007 381.86729 923.63876L380.93394 923.2797ZM383.93406 917.92318C384.5703 917.0927 385.26347 916.313 386.01347 915.584L386.71049 916.301C385.99525 916.9963 385.33436 917.7397 384.7278 918.5313L383.93406 917.92318ZM388.40776 913.5735C389.24476 912.96859 390.12104 912.42678 391.03654 911.94808L391.4999 912.83419C390.62739 913.2904 389.7919 913.80709 388.9935 914.38406L388.40776 913.5735ZM393.86817 910.71737C394.86628 910.36648 395.88465 910.0907 396.92326 909.8901L397.11296 910.8719C396.12248 911.06326 395.1514 911.3262 394.19978 911.6607L393.86817 910.71737ZM399.93043 909.5266C400.28663 909.50888 400.64317 909.5 401 909.5H404V910.5H401C400.65995 910.5 400.32 910.5085 399.98017 910.5254L399.93043 909.5266Z"/>
<path transform="matrix(.71716436,0,0,.71716436,-55.140604,-651.90237)" d="M399 940H501C501.5909 940 502.17619 940.0576 502.75575 940.1729 503.33534 940.2882 503.8981 940.45889 504.44407 940.685 504.99006 940.91116 505.5087 941.18838 506.00007 941.51669 506.49143 941.84506 506.94606 942.21817 507.36393 942.636 507.78178 943.05386 508.15486 943.5084 508.4832 943.99978 508.8115 944.49118 509.0887 945.00979 509.31489 945.5557 509.54106 946.10177 509.71177 946.66458 509.82704 947.24417 509.94233 947.8237 509.99998 948.409 510 949V991C509.99998 991.5909 509.94233 992.1761 509.82704 992.7556 509.71177 993.33529 509.54106 993.898 509.31489 994.444 509.0887 994.9899 508.8115 995.50857 508.48316 995.99996 508.15486 996.49136 507.78178 996.9459 507.36393 997.36386 506.94606 997.7817 506.49147 998.1547 506.0001 998.48306 505.50874 998.81137 504.99009 999.0886 504.4441 999.31478 503.8981 999.5409 503.33534 999.7116 502.75575 999.8269 502.17619 999.94229 501.5909 999.99996 501 1000H399C398.40904 999.99996 397.82374 999.94229 397.24415 999.8269 396.66453 999.7116 396.1017 999.54086 395.55577 999.3147 395.0098 999.08859 394.49116 998.81137 393.9998 998.48306 393.50843 998.1547 393.05384 997.7817 392.636 997.36386 392.2181 996.9459 391.84504 996.49136 391.51673 995.99996 391.1884 995.50857 390.91117 994.9899 390.68504 994.444 390.4589 993.898 390.28819 993.33529 390.1729 992.7557 390.05763 992.17617 389.99998 991.5909 390 991V949C389.99998 948.409 390.05763 947.8237 390.1729 947.24417 390.28819 946.66458 390.4589 946.10177 390.68504 945.5557 390.91117 945.00979 391.1884 944.49118 391.51673 943.99978 391.84504 943.5084 392.2181 943.05386 392.636 942.636 393.05384 942.21817 393.50843 941.84506 393.9998 941.51669 394.49116 941.18838 395.0098 940.91116 395.55577 940.685 396.1017 940.45889 396.66453 940.28817 397.24415 940.17288 397.82374 940.0576 398.40904 940 399 940Z" fill="#f8cecc"/>
<path transform="matrix(.71716436,0,0,.71716436,-55.140604,-651.90237)" stroke-width="1" stroke-linecap="butt" stroke-miterlimit="4" stroke-linejoin="miter" fill="none" stroke="#000000" d="M399 940H501C501.5909 940 502.17619 940.0576 502.75575 940.1729 503.33534 940.2882 503.8981 940.45889 504.44407 940.685 504.99006 940.91116 505.5087 941.18838 506.00007 941.51669 506.49143 941.84506 506.94606 942.21817 507.36393 942.636 507.78178 943.05386 508.15486 943.5084 508.4832 943.99978 508.8115 944.49118 509.0887 945.00979 509.31489 945.5557 509.54106 946.10177 509.71177 946.66458 509.82704 947.24417 509.94233 947.8237 509.99998 948.409 510 949V991C509.99998 991.5909 509.94233 992.1761 509.82704 992.7556 509.71177 993.33529 509.54106 993.898 509.31489 994.444 509.0887 994.9899 508.8115 995.50857 508.48316 995.99996 508.15486 996.49136 507.78178 996.9459 507.36393 997.36386 506.94606 997.7817 506.49147 998.1547 506.0001 998.48306 505.50874 998.81137 504.99009 999.0886 504.4441 999.31478 503.8981 999.5409 503.33534 999.7116 502.75575 999.8269 502.17619 999.94229 501.5909 999.99996 501 1000H399C398.40904 999.99996 397.82374 999.94229 397.24415 999.8269 396.66453 999.7116 396.1017 999.54086 395.55577 999.3147 395.0098 999.08859 394.49116 998.81137 393.9998 998.48306 393.50843 998.1547 393.05384 997.7817 392.636 997.36386 392.2181 996.9459 391.84504 996.49136 391.51673 995.99996 391.1884 995.50857 390.91117 994.9899 390.68504 994.444 390.4589 993.898 390.28819 993.33529 390.1729 992.7557 390.05763 992.17617 389.99998 991.5909 390 991V949C389.99998 948.409 390.05763 947.8237 390.1729 947.24417 390.28819 946.66458 390.4589 946.10177 390.68504 945.5557 390.91117 945.00979 391.1884 944.49118 391.51673 943.99978 391.84504 943.5084 392.2181 943.05386 392.636 942.636 393.05384 942.21817 393.50843 941.84506 393.9998 941.51669 394.49116 941.18838 395.0098 940.91116 395.55577 940.685 396.1017 940.45889 396.66453 940.28817 397.24415 940.17288 397.82374 940.0576 398.40904 940 399 940Z"/>
<text xml:space="preserve" transform="matrix(.71716436 0 0 .71716436 -55.499189 -652.2609)" font-size="14" font-family="CMUSansSerif"><tspan y="966" x="416.71876 426.05677 433.05677 440.05677 444.84477 451.06077 458.06077 464.78077 469.83476 476.05076">Aggregated</tspan></text>
<text xml:space="preserve" transform="matrix(.71716436 0 0 .71716436 -55.499189 -652.2609)" font-size="14" font-family="CMUSansSerif"><tspan y="983" x="406.84376 415.88777 422.10377 428.94435 433.73234 439.94834 445.31034 451.52635 458.76435 463.81834 470.53834 475.59233 478.93833 485.93833">Representation</tspan></text>
<path transform="matrix(.71716436,0,0,.71716436,-55.140604,-651.90237)" d="M399 1020H501C501.5909 1020 502.17619 1020.0576 502.75575 1020.1729 503.33534 1020.28817 503.8981 1020.45889 504.44407 1020.685 504.99006 1020.91116 505.5087 1021.18838 506.00007 1021.5167 506.49143 1021.84506 506.94606 1022.2181 507.36393 1022.636 507.78178 1023.0538 508.15486 1023.50839 508.4832 1023.99978 508.8115 1024.4911 509.0887 1025.0098 509.31489 1025.5558 509.54106 1026.1017 509.71177 1026.6644 509.82704 1027.2442 509.94233 1027.8237 509.99998 1028.409 510 1029V1071C509.99998 1071.591 509.94233 1072.1762 509.82704 1072.7556 509.71177 1073.3352 509.54106 1073.898 509.31489 1074.444 509.0887 1074.99 508.8115 1075.5087 508.48316 1076 508.15486 1076.4913 507.78178 1076.946 507.36393 1077.3639 506.94606 1077.7817 506.49147 1078.1548 506.0001 1078.4832 505.50874 1078.8114 504.99009 1079.0885 504.4441 1079.3147 503.8981 1079.5409 503.33534 1079.7116 502.75575 1079.8269 502.17619 1079.9423 501.5909 1080 501 1080H399C398.40904 1080 397.82374 1079.9423 397.24415 1079.8269 396.66453 1079.7116 396.1017 1079.5409 395.55577 1079.3147 395.0098 1079.0885 394.49116 1078.8113 393.9998 1078.483 393.50843 1078.1548 393.05384 1077.7817 392.636 1077.3639 392.2181 1076.946 391.84504 1076.4915 391.51673 1076.0001 391.1884 1075.5088 390.91117 1074.9901 390.68504 1074.4441 390.4589 1073.8981 390.28819 1073.3353 390.1729 1072.7557 390.05763 1072.1762 389.99998 1071.591 390 1071V1029C389.99998 1028.409 390.05763 1027.8237 390.1729 1027.2442 390.28819 1026.6644 390.4589 1026.1017 390.68504 1025.5557 390.91117 1025.0097 391.1884 1024.491 391.51673 1023.9997 391.84504 1023.50839 392.2181 1023.0538 392.636 1022.636 393.05384 1022.2181 393.50843 1021.84506 393.9998 1021.5167 394.49116 1021.18838 395.0098 1020.91116 395.55577 1020.685 396.1017 1020.45889 396.66453 1020.28817 397.24415 1020.1729 397.82374 1020.0576 398.40904 1020 399 1020Z" fill="#d5e8d4"/>
<path transform="matrix(.71716436,0,0,.71716436,-55.140604,-651.90237)" stroke-width="1" stroke-linecap="butt" stroke-miterlimit="4" stroke-linejoin="miter" fill="none" stroke="#000000" d="M399 1020H501C501.5909 1020 502.17619 1020.0576 502.75575 1020.1729 503.33534 1020.28817 503.8981 1020.45889 504.44407 1020.685 504.99006 1020.91116 505.5087 1021.18838 506.00007 1021.5167 506.49143 1021.84506 506.94606 1022.2181 507.36393 1022.636 507.78178 1023.0538 508.15486 1023.50839 508.4832 1023.99978 508.8115 1024.4911 509.0887 1025.0098 509.31489 1025.5558 509.54106 1026.1017 509.71177 1026.6644 509.82704 1027.2442 509.94233 1027.8237 509.99998 1028.409 510 1029V1071C509.99998 1071.591 509.94233 1072.1762 509.82704 1072.7556 509.71177 1073.3352 509.54106 1073.898 509.31489 1074.444 509.0887 1074.99 508.8115 1075.5087 508.48316 1076 508.15486 1076.4913 507.78178 1076.946 507.36393 1077.3639 506.94606 1077.7817 506.49147 1078.1548 506.0001 1078.4832 505.50874 1078.8114 504.99009 1079.0885 504.4441 1079.3147 503.8981 1079.5409 503.33534 1079.7116 502.75575 1079.8269 502.17619 1079.9423 501.5909 1080 501 1080H399C398.40904 1080 397.82374 1079.9423 397.24415 1079.8269 396.66453 1079.7116 396.1017 1079.5409 395.55577 1079.3147 395.0098 1079.0885 394.49116 1078.8113 393.9998 1078.483 393.50843 1078.1548 393.05384 1077.7817 392.636 1077.3639 392.2181 1076.946 391.84504 1076.4915 391.51673 1076.0001 391.1884 1075.5088 390.91117 1074.9901 390.68504 1074.4441 390.4589 1073.8981 390.28819 1073.3353 390.1729 1072.7557 390.05763 1072.1762 389.99998 1071.591 390 1071V1029C389.99998 1028.409 390.05763 1027.8237 390.1729 1027.2442 390.28819 1026.6644 390.4589 1026.1017 390.68504 1025.5557 390.91117 1025.0097 391.1884 1024.491 391.51673 1023.9997 391.84504 1023.50839 392.2181 1023.0538 392.636 1022.636 393.05384 1022.2181 393.50843 1021.84506 393.9998 1021.5167 394.49116 1021.18838 395.0098 1020.91116 395.55577 1020.685 396.1017 1020.45889 396.66453 1020.28817 397.24415 1020.1729 397.82374 1020.0576 398.40904 1020 399 1020Z"/>
<text xml:space="preserve" transform="matrix(.71716436 0 0 .71716436 -55.499189 -652.2609)" font-size="14" font-family="CMUSansSerif"><tspan y="1046" x="402.51564 411.85365 418.85365 426.09165 433.32966 440.56767 445.22966 449.12165 456.35966 460.62965 466.84565 471.63365 477.84965 485.08766 491.30366">Bound Inference</tspan></text>
<text fill="#0000cc" xml:space="preserve" transform="matrix(.71716436 0 0 .71716436 -55.499189 -652.2609)" font-size="14" font-family="CMUSansSerif"><tspan y="1063" x="405.71876 412.71876 417.50675 423.72276 427.06877 433.78877 439.15077 444.51277 451.51277 455.40476 460.06675 467.06675 470.95875 475.62074 479.51274 483.40473 487.29673">{rclass0: 3, ...}</tspan></text>
<path transform="matrix(.71716436,0,0,.71716436,-55.140604,-651.90237)" stroke-width="1" stroke-linecap="butt" stroke-miterlimit="10" stroke-linejoin="miter" fill="none" stroke="#000000" d="M350 1010H370V970H382.13"/>
<path transform="matrix(.71716436,0,0,.71716436,-55.140604,-651.90237)" d="M388.88 970 379.88 974.5 382.13 970 379.88 965.5 388.88 970Z"/>
<path transform="matrix(.71716436,0,0,.71716436,-55.140604,-651.90237)" stroke-width="1" stroke-linecap="butt" stroke-miterlimit="10" stroke-linejoin="miter" fill="none" stroke="#000000" d="M388.88 970 379.88 974.5 382.13 970 379.88 965.5 388.88 970Z"/>
<path transform="matrix(.71716436,0,0,.71716436,-55.140604,-651.90237)" stroke-width="1" stroke-linecap="butt" stroke-miterlimit="10" stroke-linejoin="miter" fill="none" stroke="#000000" d="M450 1000V1013.63"/>
<path transform="matrix(.71716436,0,0,.71716436,-55.140604,-651.90237)" d="M450 1018.88 446.5 1011.88 450 1013.63 453.5 1011.88 450 1018.88Z"/>
<path transform="matrix(.71716436,0,0,.71716436,-55.140604,-651.90237)" stroke-width="1" stroke-linecap="butt" stroke-miterlimit="10" stroke-linejoin="miter" fill="none" stroke="#000000" d="M450 1018.88 446.5 1011.88 450 1013.63 453.5 1011.88 450 1018.88Z"/>
<text xml:space="preserve" transform="matrix(.71716436 0 0 .71716436 -55.499189 -652.2609)" font-size="15" font-family="CMUSansSerif"><tspan y="930" x="424.73439 434.73939 442.4944 449.6944 453.2794 460.1944 465.9394 469.52439">Analysis</tspan></text>
<path transform="matrix(.71716436,0,0,.71716436,-55.140604,-651.90237)" d="M563.5 940H626.5C627.3864 940 628.26437 940.0865 629.1337 940.2594 630.0031 940.4323 630.8473 940.6884 631.6662 941.0276 632.48519 941.36679 633.2632 941.7826 634.0002 942.2751 634.7372 942.7676 635.4191 943.3273 636.0459 943.95407 636.67269 944.5808 637.2323 945.26278 637.72476 945.9998 638.21719 946.7368 638.633 947.51486 638.9723 948.33377 639.3115 949.15267 639.5676 949.9968 639.74057 950.8663 639.91348 951.73568 639.99996 952.6136 640 953.5V1066.5C639.99996 1067.3864 639.91348 1068.2643 639.74057 1069.1336 639.5676 1070.0029 639.3115 1070.847 638.9723 1071.666 638.633 1072.485 638.21719 1073.263 637.72476 1074 637.2323 1074.737 636.67269 1075.4191 636.0459 1076.0459 635.4191 1076.6726 634.7372 1077.2322 634.0002 1077.7247 633.2632 1078.2172 632.48519 1078.6329 631.6662 1078.9722 630.8473 1079.3114 630.0031 1079.5675 629.1337 1079.7405 628.26437 1079.9135 627.3864 1080 626.5 1080H563.5C562.6136 1080 561.73568 1079.9135 560.8662 1079.7405 559.9968 1079.5675 559.15267 1079.3114 558.3337 1078.9722 557.5147 1078.6329 556.7367 1078.2172 555.99966 1077.7247 555.26266 1077.2322 554.58078 1076.6726 553.954 1076.0459 553.3272 1075.4191 552.7676 1074.737 552.2751 1074 551.7826 1073.263 551.3667 1072.485 551.0275 1071.666 550.68838 1070.847 550.43228 1070.0029 550.25936 1069.1336 550.0864 1068.2643 550 1067.3864 550 1066.5V953.5C550 952.6136 550.0864 951.73568 550.2593 950.8663 550.4322 949.9968 550.6883 949.15267 551.02749 948.33377 551.3667 947.51486 551.78256 946.7368 552.275 945.9998 552.7675 945.26278 553.3272 944.5808 553.954 943.95407 554.58078 943.3273 555.2627 942.7676 555.9997 942.2751 556.7367 941.7826 557.5147 941.36679 558.3337 941.0276 559.15267 940.6884 559.9968 940.4323 560.8662 940.25936 561.73568 940.0864 562.6136 940 563.5 940Z" fill="#d5e8d4"/>
<path transform="matrix(.71716436,0,0,.71716436,-55.140604,-651.90237)" stroke-width="1" stroke-linecap="butt" stroke-miterlimit="4" stroke-linejoin="miter" fill="none" stroke="#000000" d="M563.5 940H626.5C627.3864 940 628.26437 940.0865 629.1337 940.2594 630.0031 940.4323 630.8473 940.6884 631.6662 941.0276 632.48519 941.36679 633.2632 941.7826 634.0002 942.2751 634.7372 942.7676 635.4191 943.3273 636.0459 943.95407 636.67269 944.5808 637.2323 945.26278 637.72476 945.9998 638.21719 946.7368 638.633 947.51486 638.9723 948.33377 639.3115 949.15267 639.5676 949.9968 639.74057 950.8663 639.91348 951.73568 639.99996 952.6136 640 953.5V1066.5C639.99996 1067.3864 639.91348 1068.2643 639.74057 1069.1336 639.5676 1070.0029 639.3115 1070.847 638.9723 1071.666 638.633 1072.485 638.21719 1073.263 637.72476 1074 637.2323 1074.737 636.67269 1075.4191 636.0459 1076.0459 635.4191 1076.6726 634.7372 1077.2322 634.0002 1077.7247 633.2632 1078.2172 632.48519 1078.6329 631.6662 1078.9722 630.8473 1079.3114 630.0031 1079.5675 629.1337 1079.7405 628.26437 1079.9135 627.3864 1080 626.5 1080H563.5C562.6136 1080 561.73568 1079.9135 560.8662 1079.7405 559.9968 1079.5675 559.15267 1079.3114 558.3337 1078.9722 557.5147 1078.6329 556.7367 1078.2172 555.99966 1077.7247 555.26266 1077.2322 554.58078 1076.6726 553.954 1076.0459 553.3272 1075.4191 552.7676 1074.737 552.2751 1074 551.7826 1073.263 551.3667 1072.485 551.0275 1071.666 550.68838 1070.847 550.43228 1070.0029 550.25936 1069.1336 550.0864 1068.2643 550 1067.3864 550 1066.5V953.5C550 952.6136 550.0864 951.73568 550.2593 950.8663 550.4322 949.9968 550.6883 949.15267 551.02749 948.33377 551.3667 947.51486 551.78256 946.7368 552.275 945.9998 552.7675 945.26278 553.3272 944.5808 553.954 943.95407 554.58078 943.3273 555.2627 942.7676 555.9997 942.2751 556.7367 941.7826 557.5147 941.36679 558.3337 941.0276 559.15267 940.6884 559.9968 940.4323 560.8662 940.25936 561.73568 940.0864 562.6136 940 563.5 940Z"/>
<text xml:space="preserve" transform="matrix(.71716436 0 0 .71716436 -55.499189 -652.2609)" font-size="14" font-family="CMUSansSerif"><tspan y="1014" x="558.375 562.267 569.505 574.867 579.921 586.641 593.87899 598.933 602.279 608.99899 614.053 617.399 624.399">Instantiation</tspan></text>
<path transform="matrix(.71716436,0,0,.71716436,-55.140604,-651.90237)" stroke-width="1" stroke-linecap="butt" stroke-miterlimit="10" stroke-linejoin="miter" fill="none" stroke="#000000" d="M510 1050H530V1010H542.13"/>
<path transform="matrix(.71716436,0,0,.71716436,-55.140604,-651.90237)" d="M548.88 1010 539.88 1014.5 542.13 1010 539.88 1005.5 548.88 1010Z"/>
<path transform="matrix(.71716436,0,0,.71716436,-55.140604,-651.90237)" stroke-width="1" stroke-linecap="butt" stroke-miterlimit="10" stroke-linejoin="miter" fill="none" stroke="#000000" d="M548.88 1010 539.88 1014.5 542.13 1010 539.88 1005.5 548.88 1010Z"/>
<path transform="matrix(.71716436,0,0,.71716436,-55.140604,-651.90237)" stroke-width="1" stroke-linecap="butt" stroke-miterlimit="10" stroke-linejoin="miter" fill="none" stroke="#000000" d="M510 970H530V1010H542.13"/>
<path transform="matrix(.71716436,0,0,.71716436,-55.140604,-651.90237)" d="M548.88 1010 539.88 1014.5 542.13 1010 539.88 1005.5 548.88 1010Z"/>
<path transform="matrix(.71716436,0,0,.71716436,-55.140604,-651.90237)" stroke-width="1" stroke-linecap="butt" stroke-miterlimit="10" stroke-linejoin="miter" fill="none" stroke="#000000" d="M548.88 1010 539.88 1014.5 542.13 1010 539.88 1005.5 548.88 1010Z"/>
<path transform="matrix(.71716436,0,0,.71716436,-55.140604,-651.90237)" d="M666 940H774C774.394 940 774.7841 940.0384 775.1705 940.11526 775.5568 940.1921 775.932 940.3059 776.29598 940.45669 776.6599 940.6074 777.0057 940.79226 777.3332 941.01107 777.6608 941.23 777.9639 941.4787 778.24258 941.7573 778.5211 942.0359 778.76986 942.3389 778.9887 942.6665 779.2076 942.994 779.3924 943.3398 779.5432 943.7038 779.694 944.06777 779.8078 944.44296 779.88467 944.82937 779.9615 945.2158 779.99996 945.606 780 946V974C779.99996 974.3939 779.9615 974.78408 779.88467 975.1704 779.8078 975.5568 779.694 975.93197 779.5432 976.2959 779.3924 976.65988 779.2076 977.0057 778.9888 977.3333 778.76986 977.6609 778.5211 977.9639 778.24258 978.24258 777.9639 978.5211 777.6608 978.76986 777.3332 978.98867 777.0057 979.2075 776.6599 979.39236 776.29598 979.54318 775.932 979.6939 775.5568 979.80776 775.1705 979.8846 774.7841 979.9615 774.394 979.99996 774 980H666C665.606 979.99996 665.2158 979.9615 664.8294 979.8846 664.44296 979.80776 664.06777 979.6939 663.7038 979.54318 663.3398 979.39236 662.994 979.2075 662.66647 978.9887 662.33889 978.76986 662.0358 978.5211 661.75729 978.24258 661.4787 977.9639 661.23 977.6609 661.0111 977.3333 660.7922 977.0057 660.60739 976.65988 660.4566 976.2959 660.3059 975.93197 660.1921 975.5568 660.11526 975.1704 660.0384 974.78408 659.99996 974.3939 660 974V946C659.99996 945.606 660.0384 945.2158 660.11526 944.8294 660.1921 944.443 660.3059 944.06777 660.4566 943.7038 660.60739 943.3398 660.7922 942.994 661.0111 942.6665 661.23 942.3389 661.4787 942.0359 661.75729 941.7573 662.0358 941.4787 662.33889 941.23 662.66647 941.01107 662.994 940.79226 663.3398 940.6074 663.7038 940.45669 664.06777 940.3059 664.44296 940.1921 664.8294 940.11526 665.2158 940.0384 665.606 940 666 940Z" fill="#f8cecc"/>
<path transform="matrix(.71716436,0,0,.71716436,-55.140604,-651.90237)" stroke-width="1" stroke-linecap="butt" stroke-miterlimit="4" stroke-linejoin="miter" fill="none" stroke="#000000" d="M666 940H774C774.394 940 774.7841 940.0384 775.1705 940.11526 775.5568 940.1921 775.932 940.3059 776.29598 940.45669 776.6599 940.6074 777.0057 940.79226 777.3332 941.01107 777.6608 941.23 777.9639 941.4787 778.24258 941.7573 778.5211 942.0359 778.76986 942.3389 778.9887 942.6665 779.2076 942.994 779.3924 943.3398 779.5432 943.7038 779.694 944.06777 779.8078 944.44296 779.88467 944.82937 779.9615 945.2158 779.99996 945.606 780 946V974C779.99996 974.3939 779.9615 974.78408 779.88467 975.1704 779.8078 975.5568 779.694 975.93197 779.5432 976.2959 779.3924 976.65988 779.2076 977.0057 778.9888 977.3333 778.76986 977.6609 778.5211 977.9639 778.24258 978.24258 777.9639 978.5211 777.6608 978.76986 777.3332 978.98867 777.0057 979.2075 776.6599 979.39236 776.29598 979.54318 775.932 979.6939 775.5568 979.80776 775.1705 979.8846 774.7841 979.9615 774.394 979.99996 774 980H666C665.606 979.99996 665.2158 979.9615 664.8294 979.8846 664.44296 979.80776 664.06777 979.6939 663.7038 979.54318 663.3398 979.39236 662.994 979.2075 662.66647 978.9887 662.33889 978.76986 662.0358 978.5211 661.75729 978.24258 661.4787 977.9639 661.23 977.6609 661.0111 977.3333 660.7922 977.0057 660.60739 976.65988 660.4566 976.2959 660.3059 975.93197 660.1921 975.5568 660.11526 975.1704 660.0384 974.78408 659.99996 974.3939 660 974V946C659.99996 945.606 660.0384 945.2158 660.11526 944.8294 660.1921 944.443 660.3059 944.06777 660.4566 943.7038 660.60739 943.3398 660.7922 942.994 661.0111 942.6665 661.23 942.3389 661.4787 942.0359 661.75729 941.7573 662.0358 941.4787 662.33889 941.23 662.66647 941.01107 662.994 940.79226 663.3398 940.6074 663.7038 940.45669 664.06777 940.3059 664.44296 940.1921 664.8294 940.11526 665.2158 940.0384 665.606 940 666 940Z"/>
<text xml:space="preserve" transform="matrix(.71716436 0 0 .71716436 -55.499189 -652.2609)" font-size="14" font-family="CMUSansSerif"><tspan y="956" x="692.53128 696.4233 703.66128 709.02328 714.0773 720.79727 728.0352 734.2512 740.4672">Instance0</tspan></text>
<text fill="#0000cc" xml:space="preserve" transform="matrix(.71716436 0 0 .71716436 -55.499189 -652.2609)" font-size="14" font-family="CMUSansSerif"><tspan y="973" x="675.71878 682.71878 687.5068 693.7228 697.0688 703.78878 709.15078 714.51278 721.51278 725.4048 730.0668 737.0668 740.9588 745.6208 749.5128 753.40487 757.2969">{rclass0: 1, ...}</tspan></text>
<path transform="matrix(.71716436,0,0,.71716436,-55.140604,-651.90237)" d="M666 990H774C774.394 990.00009 774.7841 990.03848 775.1705 990.1153 775.5568 990.19216 775.932 990.3059 776.29598 990.4566 776.6599 990.60739 777.0057 990.7922 777.3332 991.01107 777.6608 991.22988 777.9639 991.47866 778.24258 991.75729 778.5211 992.0358 778.76986 992.33889 778.9887 992.6664 779.2076 992.994 779.3924 993.3398 779.5432 993.70376 779.694 994.06777 779.8078 994.443 779.88467 994.8294 779.9615 995.2158 779.99996 995.606 780 996V1024C779.99996 1024.3939 779.9615 1024.784 779.88467 1025.1704 779.8078 1025.5568 779.694 1025.932 779.5432 1026.296 779.3924 1026.6599 779.2076 1027.0057 778.9888 1027.3334 778.76986 1027.6609 778.5211 1027.9639 778.24258 1028.2426 777.9639 1028.5211 777.6608 1028.7698 777.3332 1028.9887 777.0057 1029.2075 776.6599 1029.3923 776.29598 1029.5431 775.932 1029.6939 775.5568 1029.8078 775.1705 1029.8845 774.7841 1029.9614 774.394 1029.9999 774 1030H666C665.606 1029.9999 665.2158 1029.9614 664.8294 1029.8845 664.44296 1029.8078 664.06777 1029.6939 663.7038 1029.5431 663.3398 1029.3923 662.994 1029.2077 662.66647 1028.9888 662.33889 1028.7699 662.0358 1028.5211 661.75729 1028.2426 661.4787 1027.9639 661.23 1027.6609 661.0111 1027.3334 660.7922 1027.0057 660.60739 1026.6599 660.4566 1026.296 660.3059 1025.932 660.1921 1025.5568 660.11526 1025.1704 660.0384 1024.784 659.99996 1024.3939 660 1024V996C659.99996 995.606 660.0384 995.2159 660.11526 994.82949 660.1921 994.44308 660.3059 994.0678 660.4566 993.7038 660.60739 993.33987 660.7922 992.994 661.0111 992.66647 661.23 992.33889 661.4787 992.0358 661.75729 991.75729 662.0358 991.47866 662.33889 991.22988 662.66647 991.01107 662.994 990.7922 663.3398 990.60739 663.7038 990.4566 664.06777 990.3059 664.44296 990.19216 664.8294 990.1153 665.2158 990.03848 665.606 990.00009 666 990Z" fill="#f8cecc"/>
<path transform="matrix(.71716436,0,0,.71716436,-55.140604,-651.90237)" stroke-width="1" stroke-linecap="butt" stroke-miterlimit="4" stroke-linejoin="miter" fill="none" stroke="#000000" d="M666 990H774C774.394 990.00009 774.7841 990.03848 775.1705 990.1153 775.5568 990.19216 775.932 990.3059 776.29598 990.4566 776.6599 990.60739 777.0057 990.7922 777.3332 991.01107 777.6608 991.22988 777.9639 991.47866 778.24258 991.75729 778.5211 992.0358 778.76986 992.33889 778.9887 992.6664 779.2076 992.994 779.3924 993.3398 779.5432 993.70376 779.694 994.06777 779.8078 994.443 779.88467 994.8294 779.9615 995.2158 779.99996 995.606 780 996V1024C779.99996 1024.3939 779.9615 1024.784 779.88467 1025.1704 779.8078 1025.5568 779.694 1025.932 779.5432 1026.296 779.3924 1026.6599 779.2076 1027.0057 778.9888 1027.3334 778.76986 1027.6609 778.5211 1027.9639 778.24258 1028.2426 777.9639 1028.5211 777.6608 1028.7698 777.3332 1028.9887 777.0057 1029.2075 776.6599 1029.3923 776.29598 1029.5431 775.932 1029.6939 775.5568 1029.8078 775.1705 1029.8845 774.7841 1029.9614 774.394 1029.9999 774 1030H666C665.606 1029.9999 665.2158 1029.9614 664.8294 1029.8845 664.44296 1029.8078 664.06777 1029.6939 663.7038 1029.5431 663.3398 1029.3923 662.994 1029.2077 662.66647 1028.9888 662.33889 1028.7699 662.0358 1028.5211 661.75729 1028.2426 661.4787 1027.9639 661.23 1027.6609 661.0111 1027.3334 660.7922 1027.0057 660.60739 1026.6599 660.4566 1026.296 660.3059 1025.932 660.1921 1025.5568 660.11526 1025.1704 660.0384 1024.784 659.99996 1024.3939 660 1024V996C659.99996 995.606 660.0384 995.2159 660.11526 994.82949 660.1921 994.44308 660.3059 994.0678 660.4566 993.7038 660.60739 993.33987 660.7922 992.994 661.0111 992.66647 661.23 992.33889 661.4787 992.0358 661.75729 991.75729 662.0358 991.47866 662.33889 991.22988 662.66647 991.01107 662.994 990.7922 663.3398 990.60739 663.7038 990.4566 664.06777 990.3059 664.44296 990.19216 664.8294 990.1153 665.2158 990.03848 665.606 990.00009 666 990Z"/>
<text xml:space="preserve" transform="matrix(.71716436 0 0 .71716436 -55.499189 -652.2609)" font-size="14" font-family="CMUSansSerif"><tspan y="1006" x="692.53128 696.4233 703.66128 709.02328 714.0773 720.79727 728.0352 734.2512 740.4672">Instance1</tspan></text>
<text fill="#0000cc" xml:space="preserve" transform="matrix(.71716436 0 0 .71716436 -55.499189 -652.2609)" font-size="14" font-family="CMUSansSerif"><tspan y="1023" x="675.71878 682.71878 687.5068 693.7228 697.0688 703.78878 709.15078 714.51278 721.51278 725.4048 730.0668 737.0668 740.9588 745.6208 749.5128 753.40487 757.2969">{rclass0: 1, ...}</tspan></text>
<path transform="matrix(.71716436,0,0,.71716436,-55.140604,-651.90237)" d="M666 1040H774C774.394 1040 774.7841 1040.0385 775.1705 1040.1154 775.5568 1040.1921 775.932 1040.3059 776.29598 1040.4567 776.6599 1040.6074 777.0057 1040.7922 777.3332 1041.0111 777.6608 1041.23 777.9639 1041.4788 778.24258 1041.7573 778.5211 1042.0359 778.76986 1042.3389 778.9887 1042.6664 779.2076 1042.9939 779.3924 1043.3397 779.5432 1043.7037 779.694 1044.0678 779.8078 1044.443 779.88467 1044.8294 779.9615 1045.2157 779.99996 1045.606 780 1046V1074C779.99996 1074.3939 779.9615 1074.784 779.88467 1075.1704 779.8078 1075.5568 779.694 1075.932 779.5432 1076.296 779.3924 1076.6599 779.2076 1077.0057 778.9888 1077.3334 778.76986 1077.6609 778.5211 1077.9639 778.24258 1078.2426 777.9639 1078.5211 777.6608 1078.7698 777.3332 1078.9887 777.0057 1079.2075 776.6599 1079.3923 776.29598 1079.5431 775.932 1079.6939 775.5568 1079.8076 775.1705 1079.8847 774.7841 1079.9616 774.394 1080 774 1080H666C665.606 1080 665.2158 1079.9616 664.8294 1079.8847 664.44296 1079.8076 664.06777 1079.6939 663.7038 1079.5431 663.3398 1079.3923 662.994 1079.2075 662.66647 1078.9887 662.33889 1078.7698 662.0358 1078.5211 661.75729 1078.2426 661.4787 1077.9639 661.23 1077.6608 661.0111 1077.3333 660.7922 1077.0057 660.60739 1076.6599 660.4566 1076.296 660.3059 1075.932 660.1921 1075.5568 660.11526 1075.1704 660.0384 1074.784 659.99996 1074.3939 660 1074V1046C659.99996 1045.606 660.0384 1045.2157 660.11526 1044.8294 660.1921 1044.443 660.3059 1044.0678 660.4566 1043.7037 660.60739 1043.3397 660.7922 1042.9939 661.0111 1042.6664 661.23 1042.3389 661.4787 1042.0359 661.75729 1041.7573 662.0358 1041.4788 662.33889 1041.23 662.66647 1041.0111 662.994 1040.7922 663.3398 1040.6074 663.7038 1040.4567 664.06777 1040.3059 664.44296 1040.1921 664.8294 1040.1154 665.2158 1040.0385 665.606 1040 666 1040Z" fill="#f8cecc"/>
<path transform="matrix(.71716436,0,0,.71716436,-55.140604,-651.90237)" stroke-width="1" stroke-linecap="butt" stroke-miterlimit="4" stroke-linejoin="miter" fill="none" stroke="#000000" d="M666 1040H774C774.394 1040 774.7841 1040.0385 775.1705 1040.1154 775.5568 1040.1921 775.932 1040.3059 776.29598 1040.4567 776.6599 1040.6074 777.0057 1040.7922 777.3332 1041.0111 777.6608 1041.23 777.9639 1041.4788 778.24258 1041.7573 778.5211 1042.0359 778.76986 1042.3389 778.9887 1042.6664 779.2076 1042.9939 779.3924 1043.3397 779.5432 1043.7037 779.694 1044.0678 779.8078 1044.443 779.88467 1044.8294 779.9615 1045.2157 779.99996 1045.606 780 1046V1074C779.99996 1074.3939 779.9615 1074.784 779.88467 1075.1704 779.8078 1075.5568 779.694 1075.932 779.5432 1076.296 779.3924 1076.6599 779.2076 1077.0057 778.9888 1077.3334 778.76986 1077.6609 778.5211 1077.9639 778.24258 1078.2426 777.9639 1078.5211 777.6608 1078.7698 777.3332 1078.9887 777.0057 1079.2075 776.6599 1079.3923 776.29598 1079.5431 775.932 1079.6939 775.5568 1079.8076 775.1705 1079.8847 774.7841 1079.9616 774.394 1080 774 1080H666C665.606 1080 665.2158 1079.9616 664.8294 1079.8847 664.44296 1079.8076 664.06777 1079.6939 663.7038 1079.5431 663.3398 1079.3923 662.994 1079.2075 662.66647 1078.9887 662.33889 1078.7698 662.0358 1078.5211 661.75729 1078.2426 661.4787 1077.9639 661.23 1077.6608 661.0111 1077.3333 660.7922 1077.0057 660.60739 1076.6599 660.4566 1076.296 660.3059 1075.932 660.1921 1075.5568 660.11526 1075.1704 660.0384 1074.784 659.99996 1074.3939 660 1074V1046C659.99996 1045.606 660.0384 1045.2157 660.11526 1044.8294 660.1921 1044.443 660.3059 1044.0678 660.4566 1043.7037 660.60739 1043.3397 660.7922 1042.9939 661.0111 1042.6664 661.23 1042.3389 661.4787 1042.0359 661.75729 1041.7573 662.0358 1041.4788 662.33889 1041.23 662.66647 1041.0111 662.994 1040.7922 663.3398 1040.6074 663.7038 1040.4567 664.06777 1040.3059 664.44296 1040.1921 664.8294 1040.1154 665.2158 1040.0385 665.606 1040 666 1040Z"/>
<text xml:space="preserve" transform="matrix(.71716436 0 0 .71716436 -55.499189 -652.2609)" font-size="14" font-family="CMUSansSerif"><tspan y="1056" x="692.53128 696.4233 703.66128 709.02328 714.0773 720.79727 728.0352 734.2512 740.4672">Instance2</tspan></text>
<text fill="#0000cc" xml:space="preserve" transform="matrix(.71716436 0 0 .71716436 -55.499189 -652.2609)" font-size="14" font-family="CMUSansSerif"><tspan y="1073" x="675.71878 682.71878 687.5068 693.7228 697.0688 703.78878 709.15078 714.51278 721.51278 725.4048 730.0668 737.0668 740.9588 745.6208 749.5128 753.40487 757.2969">{rclass0: 2, ...}</tspan></text>
<path transform="matrix(.71716436,0,0,.71716436,-55.140604,-651.90237)" d="M813.5 940H876.5C877.3864 940 878.2643 940.0865 879.1336 940.2594 880.003 940.4323 880.84719 940.6884 881.6661 941.0276 882.485 941.36679 883.263 941.7826 884.0001 942.2751 884.7371 942.7676 885.41909 943.3273 886.04586 943.95407 886.6726 944.5808 887.23226 945.26278 887.7247 945.9998 888.21719 946.7368 888.633 947.51486 888.9722 948.33377 889.31149 949.15267 889.56759 949.9968 889.7405 950.8663 889.91348 951.73568 889.99996 952.6136 890 953.5V1066.5C889.99996 1067.3864 889.91348 1068.2643 889.7405 1069.1336 889.56759 1070.0029 889.31149 1070.847 888.9722 1071.666 888.633 1072.485 888.21719 1073.263 887.72476 1074 887.23226 1074.737 886.6726 1075.4191 886.04586 1076.0459 885.41909 1076.6726 884.7371 1077.2322 884 1077.7247 883.263 1078.2172 882.485 1078.6329 881.6661 1078.9722 880.84719 1079.3114 880.003 1079.5675 879.1336 1079.7405 878.2643 1079.9135 877.3864 1080 876.5 1080H813.5C812.6136 1080 811.73568 1079.9135 810.8663 1079.7405 809.9968 1079.5675 809.15267 1079.3114 808.3337 1078.9722 807.5148 1078.6329 806.73678 1078.2172 805.99978 1077.7247 805.2627 1077.2322 804.58078 1076.6726 803.954 1076.0459 803.3272 1075.4191 802.7675 1074.737 802.275 1074 801.78256 1073.263 801.3667 1072.485 801.0275 1071.666 800.6883 1070.847 800.4322 1070.0029 800.2593 1069.1336 800.08639 1068.2643 799.99996 1067.3864 800 1066.5V953.5C799.99996 952.6136 800.0864 951.73568 800.25936 950.8663 800.43228 949.9968 800.6883 949.15267 801.0275 948.33377 801.3667 947.51486 801.7826 946.7368 802.2751 945.9998 802.7676 945.26278 803.3272 944.5808 803.954 943.95407 804.58078 943.3273 805.2627 942.7676 805.99978 942.2751 806.73678 941.7826 807.5148 941.36679 808.3337 941.0276 809.15267 940.6884 809.9968 940.4323 810.8663 940.25936 811.73568 940.0864 812.6136 940 813.5 940Z" fill="#d5e8d4"/>
<path transform="matrix(.71716436,0,0,.71716436,-55.140604,-651.90237)" stroke-width="1" stroke-linecap="butt" stroke-miterlimit="4" stroke-linejoin="miter" fill="none" stroke="#000000" d="M813.5 940H876.5C877.3864 940 878.2643 940.0865 879.1336 940.2594 880.003 940.4323 880.84719 940.6884 881.6661 941.0276 882.485 941.36679 883.263 941.7826 884.0001 942.2751 884.7371 942.7676 885.41909 943.3273 886.04586 943.95407 886.6726 944.5808 887.23226 945.26278 887.7247 945.9998 888.21719 946.7368 888.633 947.51486 888.9722 948.33377 889.31149 949.15267 889.56759 949.9968 889.7405 950.8663 889.91348 951.73568 889.99996 952.6136 890 953.5V1066.5C889.99996 1067.3864 889.91348 1068.2643 889.7405 1069.1336 889.56759 1070.0029 889.31149 1070.847 888.9722 1071.666 888.633 1072.485 888.21719 1073.263 887.72476 1074 887.23226 1074.737 886.6726 1075.4191 886.04586 1076.0459 885.41909 1076.6726 884.7371 1077.2322 884 1077.7247 883.263 1078.2172 882.485 1078.6329 881.6661 1078.9722 880.84719 1079.3114 880.003 1079.5675 879.1336 1079.7405 878.2643 1079.9135 877.3864 1080 876.5 1080H813.5C812.6136 1080 811.73568 1079.9135 810.8663 1079.7405 809.9968 1079.5675 809.15267 1079.3114 808.3337 1078.9722 807.5148 1078.6329 806.73678 1078.2172 805.99978 1077.7247 805.2627 1077.2322 804.58078 1076.6726 803.954 1076.0459 803.3272 1075.4191 802.7675 1074.737 802.275 1074 801.78256 1073.263 801.3667 1072.485 801.0275 1071.666 800.6883 1070.847 800.4322 1070.0029 800.2593 1069.1336 800.08639 1068.2643 799.99996 1067.3864 800 1066.5V953.5C799.99996 952.6136 800.0864 951.73568 800.25936 950.8663 800.43228 949.9968 800.6883 949.15267 801.0275 948.33377 801.3667 947.51486 801.7826 946.7368 802.2751 945.9998 802.7676 945.26278 803.3272 944.5808 803.954 943.95407 804.58078 943.3273 805.2627 942.7676 805.99978 942.2751 806.73678 941.7826 807.5148 941.36679 808.3337 941.0276 809.15267 940.6884 809.9968 940.4323 810.8663 940.25936 811.73568 940.0864 812.6136 940 813.5 940Z"/>
<text xml:space="preserve" transform="matrix(.71716436 0 0 .71716436 -55.499189 -652.2609)" font-size="14" font-family="CMUSansSerif"><tspan y="981" x="818.5625 826.3325 832.7865 843.9025 851.51858 858.51858 861.86459 865.2106">Symbolic</tspan></text>
<text xml:space="preserve" transform="matrix(.71716436 0 0 .71716436 -55.499189 -652.2609)" font-size="14" font-family="CMUSansSerif"><tspan y="997" x="814.2656 822.6236 829.0776 835.79757 839.14358 846.38156 853.1015 858.1555 861.5015 868.5015">Evaluation</tspan></text>
<text xml:space="preserve" transform="matrix(.71716436 0 0 .71716436 -55.499189 -652.2609)" font-size="14" font-family="CMUSansSerif"><tspan y="1031" x="811.5156 819.28567 831.53567 841.05569 845.71768 852.9556 859.6756 865.0376 871.2536">SMT-based</tspan></text>
<text xml:space="preserve" transform="matrix(.71716436 0 0 .71716436 -55.499189 -652.2609)" font-size="14" font-family="CMUSansSerif"><tspan y="1048" x="811.8125 820.76077 826.97677 831.7648">Veri</tspan></text>
<text xml:space="preserve" transform="matrix(.71716436 0 0 .71716436 -55.499189 -652.2609)" font-size="14" font-family="CMUSansSerif"><tspan y="1048" x="835.1108">&#xfb01;</tspan></text>
<text xml:space="preserve" transform="matrix(.71716436 0 0 .71716436 -55.499189 -652.2609)" font-size="14" font-family="CMUSansSerif"><tspan y="1048" x="842.6148 848.8308 855.5508 860.6048 863.9508 870.9508">cation</tspan></text>
<path transform="matrix(.71716436,0,0,.71716436,-55.140604,-651.90237)" d="M949 971 989 1011 949 1051 909 1011 949 971Z" fill="#ffe6cc"/>
<path transform="matrix(.71716436,0,0,.71716436,-55.140604,-651.90237)" stroke-width="1" stroke-linecap="butt" stroke-miterlimit="10" stroke-linejoin="miter" fill="none" stroke="#000000" d="M949 971 989 1011 949 1051 909 1011 949 971Z"/>
<text xml:space="preserve" transform="matrix(.71716436 0 0 .71716436 -55.499189 -652.2609)" font-size="14" font-family="CMUSansSerif"><tspan y="1007" x="940.9844 950.3224 953.6684">All</tspan></text>
<text xml:space="preserve" transform="matrix(.71716436 0 0 .71716436 -55.499189 -652.2609)" font-size="14" font-family="CMUSansSerif"><tspan y="1024" x="923.5781 932.52639 938.7424 943.5304">Veri</tspan></text>
<text xml:space="preserve" transform="matrix(.71716436 0 0 .71716436 -55.499189 -652.2609)" font-size="14" font-family="CMUSansSerif"><tspan y="1024" x="946.8764">&#xfb01;</tspan></text>
<text xml:space="preserve" transform="matrix(.71716436 0 0 .71716436 -55.499189 -652.2609)" font-size="14" font-family="CMUSansSerif"><tspan y="1024" x="954.38046 960.59646 967.8344">ed?</tspan></text>
<path transform="matrix(.71716436,0,0,.71716436,-55.140604,-651.90237)" stroke-width="1" stroke-linecap="butt" stroke-miterlimit="10" stroke-linejoin="miter" fill="none" stroke="#000000" d="M890 1010 902.64 1010.67"/>
<path transform="matrix(.71716436,0,0,.71716436,-55.140604,-651.90237)" d="M907.88 1010.94 900.71 1014.07 902.64 1010.67 901.08 1007.08 907.88 1010.94Z"/>
<path transform="matrix(.71716436,0,0,.71716436,-55.140604,-651.90237)" stroke-width="1" stroke-linecap="butt" stroke-miterlimit="10" stroke-linejoin="miter" fill="none" stroke="#000000" d="M907.88 1010.94 900.71 1014.07 902.64 1010.67 901.08 1007.08 907.88 1010.94Z"/>
<path transform="matrix(.71716436,0,0,.71716436,-55.140604,-651.90237)" stroke-width="1" stroke-linecap="butt" stroke-miterlimit="10" stroke-linejoin="miter" fill="none" stroke="#000000" d="M890 1010H909V1003.13"/>
<path transform="matrix(.71716436,0,0,.71716436,-55.140604,-651.90237)" d="M909 1009.88 904.5 1000.88 909 1003.13 913.5 1000.88 909 1009.88Z"/>
<path transform="matrix(.71716436,0,0,.71716436,-55.140604,-651.90237)" stroke-width="1" stroke-linecap="butt" stroke-miterlimit="10" stroke-linejoin="miter" fill="none" stroke="#000000" d="M909 1009.88 904.5 1000.88 909 1003.13 913.5 1000.88 909 1009.88Z"/>
<path transform="matrix(.71716436,0,0,.71716436,-55.140604,-651.90237)" stroke-width="1" stroke-linecap="butt" stroke-miterlimit="10" stroke-linejoin="miter" fill="none" stroke="#000000" d="M890 1060.12 909 1060.1V1018.87"/>
<path transform="matrix(.71716436,0,0,.71716436,-55.140604,-651.90237)" d="M909 1012.12 913.5 1021.12 909 1018.87 904.5 1021.12 909 1012.12Z"/>
<path transform="matrix(.71716436,0,0,.71716436,-55.140604,-651.90237)" stroke-width="1" stroke-linecap="butt" stroke-miterlimit="10" stroke-linejoin="miter" fill="none" stroke="#000000" d="M909 1012.12 913.5 1021.12 909 1018.87 904.5 1021.12 909 1012.12Z"/>
<path transform="matrix(.71716436,0,0,.71716436,-55.140604,-651.90237)" stroke-width="1" stroke-linecap="butt" stroke-miterlimit="10" stroke-linejoin="miter" fill="none" stroke="#000000" d="M780 959.83H793.63"/>
<path transform="matrix(.71716436,0,0,.71716436,-55.140604,-651.90237)" d="M798.88 959.83 791.88 963.33 793.63 959.83 791.88 956.33 798.88 959.83Z"/>
<path transform="matrix(.71716436,0,0,.71716436,-55.140604,-651.90237)" stroke-width="1" stroke-linecap="butt" stroke-miterlimit="10" stroke-linejoin="miter" fill="none" stroke="#000000" d="M798.88 959.83 791.88 963.33 793.63 959.83 791.88 956.33 798.88 959.83Z"/>
<text fill="#009900" xml:space="preserve" transform="matrix(.71716436 0 0 .71716436 -55.499189 -652.2609)" font-size="17" font-family="CMUSansSerif" font-weight="bold"><tspan y="1016" x="1050.4688 1062.4053 1071.3303 1075.6653 1080.0003">Valid</tspan></text>
<text fill="#ff0000" xml:space="preserve" transform="matrix(.71716436 0 0 .71716436 -55.499189 -652.2609)" font-size="17" font-family="CMUSansSerif" font-weight="bold"><tspan y="1094" x="924.65628 930.1813 939.71829 948.21829 957.14328 961.4783 965.8133">Invalid</tspan></text>
<path transform="matrix(.71716436,0,0,.71716436,-55.140604,-651.90237)" stroke-width="1" stroke-linecap="butt" stroke-miterlimit="10" stroke-linejoin="miter" fill="none" stroke="#000000" d="M989 1011 1043.63 1010.1"/>
<path transform="matrix(.71716436,0,0,.71716436,-55.140604,-651.90237)" d="M1048.88 1010.02 1041.94 1013.63 1043.63 1010.1 1041.83 1006.63 1048.88 1010.02Z"/>
<path transform="matrix(.71716436,0,0,.71716436,-55.140604,-651.90237)" stroke-width="1" stroke-linecap="butt" stroke-miterlimit="10" stroke-linejoin="miter" fill="none" stroke="#000000" d="M1048.88 1010.02 1041.94 1013.63 1043.63 1010.1 1041.83 1006.63 1048.88 1010.02Z"/>
<path transform="matrix(.71716436,0,0,.71716436,-55.140604,-651.90237)" stroke-width="1" stroke-linecap="butt" stroke-miterlimit="10" stroke-linejoin="miter" fill="none" stroke="#000000" d="M949 1051 949.58 1073.63"/>
<path transform="matrix(.71716436,0,0,.71716436,-55.140604,-651.90237)" d="M949.71 1078.88 946.04 1071.97 949.58 1073.63 953.03 1071.79 949.71 1078.88Z"/>
<path transform="matrix(.71716436,0,0,.71716436,-55.140604,-651.90237)" stroke-width="1" stroke-linecap="butt" stroke-miterlimit="10" stroke-linejoin="miter" fill="none" stroke="#000000" d="M949.71 1078.88 946.04 1071.97 949.58 1073.63 953.03 1071.79 949.71 1078.88Z"/>
<text xml:space="preserve" transform="matrix(.71716436 0 0 .71716436 -55.499189 -652.2609)" font-size="13" font-family="CMUSansSerif"><tspan y="999" x="984.71878 988.33279 995.0538 1001.7748 1008.4958 1014.26779 1018.96078 1022.06777 1028.5678">Induction</tspan></text>
<text xml:space="preserve" transform="matrix(.71716436 0 0 .71716436 -55.499189 -652.2609)" font-size="15" font-family="CMUSansSerif"><tspan y="930" x="724.375 734.38 741.88 749.635 757.39 765.145 771.805 779.56 784.555 794.1089 800.76889 805.89889">Bounded Veri</tspan></text>
<text xml:space="preserve" transform="matrix(.71716436 0 0 .71716436 -55.499189 -652.2609)" font-size="15" font-family="CMUSansSerif"><tspan y="930" x="809.4839">&#xfb01;</tspan></text>
<text xml:space="preserve" transform="matrix(.71716436 0 0 .71716436 -55.499189 -652.2609)" font-size="15" font-family="CMUSansSerif"><tspan y="930" x="817.52389 824.18386 831.38388 836.7988 840.38388 847.88388">cation</tspan></text>
<path transform="matrix(.71716436,0,0,.71716436,-55.140604,-651.90237)" stroke-width="1" stroke-linecap="butt" stroke-miterlimit="10" stroke-linejoin="miter" fill="none" stroke="#000000" d="M890 960H909V1003.13"/>
<path transform="matrix(.71716436,0,0,.71716436,-55.140604,-651.90237)" d="M909 1009.88 904.5 1000.88 909 1003.13 913.5 1000.88 909 1009.88Z"/>
<path transform="matrix(.71716436,0,0,.71716436,-55.140604,-651.90237)" stroke-width="1" stroke-linecap="butt" stroke-miterlimit="10" stroke-linejoin="miter" fill="none" stroke="#000000" d="M909 1009.88 904.5 1000.88 909 1003.13 913.5 1000.88 909 1009.88Z"/>
<path transform="matrix(.71716436,0,0,.71716436,-55.140604,-651.90237)" stroke-width="1" stroke-linecap="butt" stroke-miterlimit="10" stroke-linejoin="miter" fill="none" stroke="#000000" d="M780 1009.83H793.63"/>
<path transform="matrix(.71716436,0,0,.71716436,-55.140604,-651.90237)" d="M798.88 1009.83 791.88 1013.33 793.63 1009.83 791.88 1006.33 798.88 1009.83Z"/>
<path transform="matrix(.71716436,0,0,.71716436,-55.140604,-651.90237)" stroke-width="1" stroke-linecap="butt" stroke-miterlimit="10" stroke-linejoin="miter" fill="none" stroke="#000000" d="M798.88 1009.83 791.88 1013.33 793.63 1009.83 791.88 1006.33 798.88 1009.83Z"/>
<path transform="matrix(.71716436,0,0,.71716436,-55.140604,-651.90237)" stroke-width="1" stroke-linecap="butt" stroke-miterlimit="10" stroke-linejoin="miter" fill="none" stroke="#000000" d="M780 1059.83H793.63"/>
<path transform="matrix(.71716436,0,0,.71716436,-55.140604,-651.90237)" d="M798.88 1059.83 791.88 1063.33 793.63 1059.83 791.88 1056.33 798.88 1059.83Z"/>
<path transform="matrix(.71716436,0,0,.71716436,-55.140604,-651.90237)" stroke-width="1" stroke-linecap="butt" stroke-miterlimit="10" stroke-linejoin="miter" fill="none" stroke="#000000" d="M798.88 1059.83 791.88 1063.33 793.63 1059.83 791.88 1056.33 798.88 1059.83Z"/>
<path transform="matrix(.71716436,0,0,.71716436,-55.140604,-651.90237)" stroke-width="1" stroke-linecap="butt" stroke-miterlimit="10" stroke-linejoin="miter" fill="none" stroke="#000000" d="M640 959.83H653.63"/>
<path transform="matrix(.71716436,0,0,.71716436,-55.140604,-651.90237)" d="M658.88 959.83 651.88 963.33 653.63 959.83 651.88 956.33 658.88 959.83Z"/>
<path transform="matrix(.71716436,0,0,.71716436,-55.140604,-651.90237)" stroke-width="1" stroke-linecap="butt" stroke-miterlimit="10" stroke-linejoin="miter" fill="none" stroke="#000000" d="M658.88 959.83 651.88 963.33 653.63 959.83 651.88 956.33 658.88 959.83Z"/>
<path transform="matrix(.71716436,0,0,.71716436,-55.140604,-651.90237)" stroke-width="1" stroke-linecap="butt" stroke-miterlimit="10" stroke-linejoin="miter" fill="none" stroke="#000000" d="M640 1010H653.63"/>
<path transform="matrix(.71716436,0,0,.71716436,-55.140604,-651.90237)" d="M658.88 1010 651.88 1013.5 653.63 1010 651.88 1006.5 658.88 1010Z"/>
<path transform="matrix(.71716436,0,0,.71716436,-55.140604,-651.90237)" stroke-width="1" stroke-linecap="butt" stroke-miterlimit="10" stroke-linejoin="miter" fill="none" stroke="#000000" d="M658.88 1010 651.88 1013.5 653.63 1010 651.88 1006.5 658.88 1010Z"/>
<path transform="matrix(.71716436,0,0,.71716436,-55.140604,-651.90237)" stroke-width="1" stroke-linecap="butt" stroke-miterlimit="10" stroke-linejoin="miter" fill="none" stroke="#000000" d="M640 1059.83H653.63"/>
<path transform="matrix(.71716436,0,0,.71716436,-55.140604,-651.90237)" d="M658.88 1059.83 651.88 1063.33 653.63 1059.83 651.88 1056.33 658.88 1059.83Z"/>
<path transform="matrix(.71716436,0,0,.71716436,-55.140604,-651.90237)" stroke-width="1" stroke-linecap="butt" stroke-miterlimit="10" stroke-linejoin="miter" fill="none" stroke="#000000" d="M658.88 1059.83 651.88 1063.33 653.63 1059.83 651.88 1056.33 658.88 1059.83Z"/>
</g>
</svg>
